<?xml version="1.0" encoding="UTF-8" standalone="no"?>
<!DOCTYPE svg PUBLIC "-//W3C//DTD SVG 1.1//EN"
 "http://www.w3.org/Graphics/SVG/1.1/DTD/svg11.dtd">
<!-- Generated by graphviz version 12.2.0 (20241103.1931)
 -->
<!-- Title: G Pages: 1 -->
<svg width="654pt" height="605pt"
 viewBox="0.00 0.00 654.00 605.00" xmlns="http://www.w3.org/2000/svg" xmlns:xlink="http://www.w3.org/1999/xlink">
<g id="graph0" class="graph" transform="scale(1 1) rotate(0) translate(4 601)">
<title>G</title>
<polygon fill="white" stroke="none" points="-4,4 -4,-601 650,-601 650,4 -4,4"/>
<g id="clust2" class="cluster">
<title>cluster_82217841</title>
<polygon fill="none" stroke="black" stroke-dasharray="1,5" points="63.62,-201 63.62,-589 638,-589 638,-201 63.62,-201"/>
<text text-anchor="middle" x="350.81" y="-571.7" font-family="Times,serif" font-size="14.00">File: _base</text>
</g>
<g id="clust3" class="cluster">
<title>cluster_9e6360c0</title>
<polygon fill="none" stroke="black" stroke-dasharray="1,5" points="71.62,-209 71.62,-556 630,-556 630,-209 71.62,-209"/>
<text text-anchor="middle" x="350.81" y="-538.7" font-family="Times,serif" font-size="14.00">Class: SimpleModel</text>
</g>
<g id="clust4" class="cluster">
<title>cluster_05a0bfdc</title>
<polygon fill="none" stroke="black" stroke-dasharray="1,5" points="294,-8 294,-193 435.5,-193 435.5,-8 294,-8"/>
<text text-anchor="middle" x="364.75" y="-175.7" font-family="Times,serif" font-size="14.00">File: _utils</text>
</g>
<!-- Legend -->
<g id="node1" class="node">
<title>Legend</title>
<polygon fill="none" stroke="black" points="1,-173.75 1,-192.25 265,-192.25 265,-173.75 1,-173.75"/>
<text text-anchor="start" x="80.88" y="-177.95" font-family="Times,serif" font-size="14.00">Code2flow Legend</text>
<polygon fill="none" stroke="black" points="1,-79.75 1,-173.75 265,-173.75 265,-79.75 1,-79.75"/>
<polygon fill="none" stroke="black" points="3,-149.25 3,-171.75 213,-171.75 213,-149.25 3,-149.25"/>
<text text-anchor="start" x="62.25" y="-155.45" font-family="Times,serif" font-size="14.00">Regular function</text>
<polygon fill="#cccccc" stroke="none" points="213,-149.25 213,-171.75 263,-171.75 263,-149.25 213,-149.25"/>
<polygon fill="none" stroke="black" points="213,-149.25 213,-171.75 263,-171.75 263,-149.25 213,-149.25"/>
<polygon fill="none" stroke="black" points="3,-126.75 3,-149.25 213,-149.25 213,-126.75 3,-126.75"/>
<text text-anchor="start" x="14.25" y="-132.95" font-family="Times,serif" font-size="14.00">Trunk function (nothing calls this)</text>
<polygon fill="#966f33" stroke="none" points="213,-126.75 213,-149.25 263,-149.25 263,-126.75 213,-126.75"/>
<polygon fill="none" stroke="black" points="213,-126.75 213,-149.25 263,-149.25 263,-126.75 213,-126.75"/>
<polygon fill="none" stroke="black" points="3,-104.25 3,-126.75 213,-126.75 213,-104.25 3,-104.25"/>
<text text-anchor="start" x="6" y="-110.45" font-family="Times,serif" font-size="14.00">Leaf function (this calls nothing else)</text>
<polygon fill="#6db33f" stroke="none" points="213,-104.25 213,-126.75 263,-126.75 263,-104.25 213,-104.25"/>
<polygon fill="none" stroke="black" points="213,-104.25 213,-126.75 263,-126.75 263,-104.25 213,-104.25"/>
<polygon fill="none" stroke="black" points="3,-81.75 3,-104.25 213,-104.25 213,-81.75 3,-81.75"/>
<text text-anchor="start" x="72.38" y="-87.95" font-family="Times,serif" font-size="14.00">Function call</text>
<polygon fill="none" stroke="black" points="213,-81.75 213,-104.25 263,-104.25 263,-81.75 213,-81.75"/>
<text text-anchor="start" x="230.88" y="-87.95" font-family="Times,serif" font-size="14.00">→</text>
<polygon fill="none" stroke="black" points="2,-80.75 2,-172.75 264,-172.75 264,-80.75 2,-80.75"/>
<polygon fill="none" stroke="black" points="0,-78.75 0,-193.25 266,-193.25 266,-78.75 0,-78.75"/>
</g>
<!-- node_4c48eeae -->
<g id="node2" class="node">
<title>node_4c48eeae</title>
<path fill="#966f33" stroke="black" d="M166.5,-415C166.5,-415 99.5,-415 99.5,-415 93.5,-415 87.5,-409 87.5,-403 87.5,-403 87.5,-391 87.5,-391 87.5,-385 93.5,-379 99.5,-379 99.5,-379 166.5,-379 166.5,-379 172.5,-379 178.5,-385 178.5,-391 178.5,-391 178.5,-403 178.5,-403 178.5,-409 172.5,-415 166.5,-415"/>
<text text-anchor="middle" x="133" y="-391.95" font-family="Times,serif" font-size="14.00">57: __init__()</text>
</g>
<!-- node_136196fd -->
<g id="node5" class="node">
<title>node_136196fd</title>
<path fill="#6db33f" stroke="black" d="M610,-324C610,-324 475.5,-324 475.5,-324 469.5,-324 463.5,-318 463.5,-312 463.5,-312 463.5,-300 463.5,-300 463.5,-294 469.5,-288 475.5,-288 475.5,-288 610,-288 610,-288 616,-288 622,-294 622,-300 622,-300 622,-312 622,-312 622,-318 616,-324 610,-324"/>
<text text-anchor="middle" x="542.75" y="-300.95" font-family="Times,serif" font-size="14.00">95: is_model_files_exist()</text>
</g>
<!-- node_4c48eeae&#45;&gt;node_136196fd -->
<g id="edge1" class="edge">
<title>node_4c48eeae&#45;&gt;node_136196fd</title>
<path fill="none" stroke="#d55e00" stroke-width="2" d="M178.81,-403C285.73,-403 542.75,-403 542.75,-403 542.75,-403 542.75,-337.27 542.75,-337.27"/>
<polygon fill="#d55e00" stroke="#d55e00" stroke-width="2" points="546.25,-337.27 542.75,-327.27 539.25,-337.27 546.25,-337.27"/>
</g>
<!-- node_41f55827 -->
<g id="node8" class="node">
<title>node_41f55827</title>
<path fill="#cccccc" stroke="black" d="M390.75,-343C390.75,-343 338.75,-343 338.75,-343 332.75,-343 326.75,-337 326.75,-331 326.75,-331 326.75,-319 326.75,-319 326.75,-313 332.75,-307 338.75,-307 338.75,-307 390.75,-307 390.75,-307 396.75,-307 402.75,-313 402.75,-319 402.75,-319 402.75,-331 402.75,-331 402.75,-337 396.75,-343 390.75,-343"/>
<text text-anchor="middle" x="364.75" y="-319.95" font-family="Times,serif" font-size="14.00">255: load()</text>
</g>
<!-- node_4c48eeae&#45;&gt;node_41f55827 -->
<g id="edge2" class="edge">
<title>node_4c48eeae&#45;&gt;node_41f55827</title>
<path fill="none" stroke="#d55e00" stroke-width="2" d="M174.94,-378.81C174.94,-361.64 174.94,-338.5 174.94,-338.5 174.94,-338.5 313.31,-338.5 313.31,-338.5"/>
<polygon fill="#d55e00" stroke="#d55e00" stroke-width="2" points="313.31,-342 323.31,-338.5 313.31,-335 313.31,-342"/>
</g>
<!-- node_a643ce86 -->
<g id="node3" class="node">
<title>node_a643ce86</title>
<path fill="#966f33" stroke="black" d="M171.75,-253C171.75,-253 94.25,-253 94.25,-253 88.25,-253 82.25,-247 82.25,-241 82.25,-241 82.25,-229 82.25,-229 82.25,-223 88.25,-217 94.25,-217 94.25,-217 171.75,-217 171.75,-217 177.75,-217 183.75,-223 183.75,-229 183.75,-229 183.75,-241 183.75,-241 183.75,-247 177.75,-253 171.75,-253"/>
<text text-anchor="middle" x="133" y="-229.95" font-family="Times,serif" font-size="14.00">343: __repr__()</text>
</g>
<!-- node_9c65894c -->
<g id="node16" class="node">
<title>node_9c65894c</title>
<path fill="#6db33f" stroke="black" d="M407.25,-52C407.25,-52 322.25,-52 322.25,-52 316.25,-52 310.25,-46 310.25,-40 310.25,-40 310.25,-28 310.25,-28 310.25,-22 316.25,-16 322.25,-16 322.25,-16 407.25,-16 407.25,-16 413.25,-16 419.25,-22 419.25,-28 419.25,-28 419.25,-40 419.25,-40 419.25,-46 413.25,-52 407.25,-52"/>
<text text-anchor="middle" x="364.75" y="-28.95" font-family="Times,serif" font-size="14.00">93: obj_to_repr()</text>
</g>
<!-- node_a643ce86&#45;&gt;node_9c65894c -->
<g id="edge3" class="edge">
<title>node_a643ce86&#45;&gt;node_9c65894c</title>
<path fill="none" stroke="#d55e00" stroke-width="2" d="M184.12,-225C227.93,-225 284,-225 284,-225 284,-225 284,-34 284,-34 284,-34 296.97,-34 296.97,-34"/>
<polygon fill="#d55e00" stroke="#d55e00" stroke-width="2" points="296.97,-37.5 306.97,-34 296.97,-30.5 296.97,-37.5"/>
</g>
<!-- node_bbfff2aa -->
<g id="node4" class="node">
<title>node_bbfff2aa</title>
<path fill="#966f33" stroke="black" d="M167.62,-307C167.62,-307 98.38,-307 98.38,-307 92.38,-307 86.38,-301 86.38,-295 86.38,-295 86.38,-283 86.38,-283 86.38,-277 92.38,-271 98.38,-271 98.38,-271 167.62,-271 167.62,-271 173.62,-271 179.62,-277 179.62,-283 179.62,-283 179.62,-295 179.62,-295 179.62,-301 173.62,-307 167.62,-307"/>
<text text-anchor="middle" x="133" y="-283.95" font-family="Times,serif" font-size="14.00">338: __str__()</text>
</g>
<!-- node_18ac5e6d -->
<g id="node14" class="node">
<title>node_18ac5e6d</title>
<path fill="#6db33f" stroke="black" d="M415.5,-106C415.5,-106 314,-106 314,-106 308,-106 302,-100 302,-94 302,-94 302,-82 302,-82 302,-76 308,-70 314,-70 314,-70 415.5,-70 415.5,-70 421.5,-70 427.5,-76 427.5,-82 427.5,-82 427.5,-94 427.5,-94 427.5,-100 421.5,-106 415.5,-106"/>
<text text-anchor="middle" x="364.75" y="-82.95" font-family="Times,serif" font-size="14.00">61: clean_obj_dict()</text>
</g>
<!-- node_bbfff2aa&#45;&gt;node_18ac5e6d -->
<g id="edge4" class="edge">
<title>node_bbfff2aa&#45;&gt;node_18ac5e6d</title>
<path fill="none" stroke="#56b4e9" stroke-width="2" d="M180.07,-279.5C231.07,-279.5 305.25,-279.5 305.25,-279.5 305.25,-279.5 305.25,-119.39 305.25,-119.39"/>
<polygon fill="#56b4e9" stroke="#56b4e9" stroke-width="2" points="308.75,-119.39 305.25,-109.39 301.75,-119.39 308.75,-119.39"/>
</g>
<!-- node_b21b7ca3 -->
<g id="node6" class="node">
<title>node_b21b7ca3</title>
<path fill="#966f33" stroke="black" d="M174.38,-469C174.38,-469 91.62,-469 91.62,-469 85.62,-469 79.62,-463 79.62,-457 79.62,-457 79.62,-445 79.62,-445 79.62,-439 85.62,-433 91.62,-433 91.62,-433 174.38,-433 174.38,-433 180.38,-433 186.38,-439 186.38,-445 186.38,-445 186.38,-457 186.38,-457 186.38,-463 180.38,-469 174.38,-469"/>
<text text-anchor="middle" x="133" y="-445.95" font-family="Times,serif" font-size="14.00">187: is_similar()</text>
</g>
<!-- node_8883f426 -->
<g id="node9" class="node">
<title>node_8883f426</title>
<path fill="#cccccc" stroke="black" d="M397.88,-451C397.88,-451 331.62,-451 331.62,-451 325.62,-451 319.62,-445 319.62,-439 319.62,-439 319.62,-427 319.62,-427 319.62,-421 325.62,-415 331.62,-415 331.62,-415 397.88,-415 397.88,-415 403.88,-415 409.88,-421 409.88,-427 409.88,-427 409.88,-439 409.88,-439 409.88,-445 403.88,-451 397.88,-451"/>
<text text-anchor="middle" x="364.75" y="-427.95" font-family="Times,serif" font-size="14.00">152: predict()</text>
</g>
<!-- node_b21b7ca3&#45;&gt;node_8883f426 -->
<g id="edge5" class="edge">
<title>node_b21b7ca3&#45;&gt;node_8883f426</title>
<path fill="none" stroke="#009e73" stroke-width="2" d="M186.75,-442C186.75,-442 306.45,-442 306.45,-442"/>
<polygon fill="#009e73" stroke="#009e73" stroke-width="2" points="306.45,-445.5 316.45,-442 306.45,-438.5 306.45,-445.5"/>
</g>
<!-- node_611349ab -->
<g id="node12" class="node">
<title>node_611349ab</title>
<path fill="#6db33f" stroke="black" d="M393.38,-397C393.38,-397 336.12,-397 336.12,-397 330.12,-397 324.12,-391 324.12,-385 324.12,-385 324.12,-373 324.12,-373 324.12,-367 330.12,-361 336.12,-361 336.12,-361 393.38,-361 393.38,-361 399.38,-361 405.38,-367 405.38,-373 405.38,-373 405.38,-385 405.38,-385 405.38,-391 399.38,-397 393.38,-397"/>
<text text-anchor="middle" x="364.75" y="-373.95" font-family="Times,serif" font-size="14.00">169: score()</text>
</g>
<!-- node_b21b7ca3&#45;&gt;node_611349ab -->
<g id="edge6" class="edge">
<title>node_b21b7ca3&#45;&gt;node_611349ab</title>
<path fill="none" stroke="#009e73" stroke-width="2" d="M186.75,-437.5C201.21,-437.5 212.92,-437.5 212.92,-437.5 212.92,-437.5 212.92,-388 212.92,-388 212.92,-388 310.63,-388 310.63,-388"/>
<polygon fill="#009e73" stroke="#009e73" stroke-width="2" points="310.63,-391.5 320.63,-388 310.63,-384.5 310.63,-391.5"/>
</g>
<!-- node_57ea54ee -->
<g id="node7" class="node">
<title>node_57ea54ee</title>
<path fill="#6db33f" stroke="black" d="M405.75,-269C405.75,-269 323.75,-269 323.75,-269 317.75,-269 311.75,-263 311.75,-257 311.75,-257 311.75,-245 311.75,-245 311.75,-239 317.75,-233 323.75,-233 323.75,-233 405.75,-233 405.75,-233 411.75,-233 417.75,-239 417.75,-245 417.75,-245 417.75,-257 417.75,-257 417.75,-263 411.75,-269 405.75,-269"/>
<text text-anchor="middle" x="364.75" y="-245.95" font-family="Times,serif" font-size="14.00">211: is_trained()</text>
</g>
<!-- node_41f55827&#45;&gt;node_136196fd -->
<g id="edge7" class="edge">
<title>node_41f55827&#45;&gt;node_136196fd</title>
<path fill="none" stroke="#cc79a7" stroke-width="2" d="M402.94,-315.5C402.94,-315.5 450.25,-315.5 450.25,-315.5"/>
<polygon fill="#cc79a7" stroke="#cc79a7" stroke-width="2" points="450.25,-319 460.25,-315.5 450.25,-312 450.25,-319"/>
</g>
<!-- node_8883f426&#45;&gt;node_8883f426 -->
<g id="edge8" class="edge">
<title>node_8883f426&#45;&gt;node_8883f426</title>
<path fill="none" stroke="#d55e00" stroke-width="2" d="M319.22,-424C318.22,-424 317.66,-424 317.66,-424 317.66,-424 317.66,-409 317.66,-409 317.66,-409 413.81,-409 413.81,-409 413.81,-409 413.81,-433 413.81,-433 413.81,-433 413.46,-433 413.46,-433"/>
<polygon fill="#d55e00" stroke="#d55e00" stroke-width="2" points="423.31,-429.5 413.31,-433 423.31,-436.5 423.31,-429.5"/>
</g>
<!-- node_1ab8140c -->
<g id="node10" class="node">
<title>node_1ab8140c</title>
<path fill="#966f33" stroke="black" d="M156.38,-523C156.38,-523 109.62,-523 109.62,-523 103.62,-523 97.62,-517 97.62,-511 97.62,-511 97.62,-499 97.62,-499 97.62,-493 103.62,-487 109.62,-487 109.62,-487 156.38,-487 156.38,-487 162.38,-487 168.38,-493 168.38,-499 168.38,-499 168.38,-511 168.38,-511 168.38,-517 162.38,-523 156.38,-523"/>
<text text-anchor="middle" x="133" y="-499.95" font-family="Times,serif" font-size="14.00">121: run()</text>
</g>
<!-- node_1ab8140c&#45;&gt;node_57ea54ee -->
<g id="edge9" class="edge">
<title>node_1ab8140c&#45;&gt;node_57ea54ee</title>
<path fill="none" stroke="#f0e442" stroke-width="2" d="M168.66,-505C221.82,-505 315.69,-505 315.69,-505 315.69,-505 315.69,-282.29 315.69,-282.29"/>
<polygon fill="#f0e442" stroke="#f0e442" stroke-width="2" points="319.19,-282.29 315.69,-272.29 312.19,-282.29 319.19,-282.29"/>
</g>
<!-- node_1ab8140c&#45;&gt;node_8883f426 -->
<g id="edge10" class="edge">
<title>node_1ab8140c&#45;&gt;node_8883f426</title>
<path fill="none" stroke="#f0e442" stroke-width="2" d="M168.75,-496C199.67,-496 239.46,-496 239.46,-496 239.46,-496 239.46,-446.5 239.46,-446.5 239.46,-446.5 306.14,-446.5 306.14,-446.5"/>
<polygon fill="#f0e442" stroke="#f0e442" stroke-width="2" points="306.14,-450 316.14,-446.5 306.14,-443 306.14,-450"/>
</g>
<!-- node_8379b8c2 -->
<g id="node13" class="node">
<title>node_8379b8c2</title>
<path fill="#6db33f" stroke="black" d="M391.5,-523C391.5,-523 338,-523 338,-523 332,-523 326,-517 326,-511 326,-511 326,-499 326,-499 326,-493 332,-487 338,-487 338,-487 391.5,-487 391.5,-487 397.5,-487 403.5,-493 403.5,-499 403.5,-499 403.5,-511 403.5,-511 403.5,-517 397.5,-523 391.5,-523"/>
<text text-anchor="middle" x="364.75" y="-499.95" font-family="Times,serif" font-size="14.00">139: train()</text>
</g>
<!-- node_1ab8140c&#45;&gt;node_8379b8c2 -->
<g id="edge11" class="edge">
<title>node_1ab8140c&#45;&gt;node_8379b8c2</title>
<path fill="none" stroke="#f0e442" stroke-width="2" d="M168.7,-514C168.7,-514 312.49,-514 312.49,-514"/>
<polygon fill="#f0e442" stroke="#f0e442" stroke-width="2" points="312.49,-517.5 322.49,-514 312.49,-510.5 312.49,-517.5"/>
</g>
<!-- node_e2279113 -->
<g id="node11" class="node">
<title>node_e2279113</title>
<path fill="#966f33" stroke="black" d="M159.38,-361C159.38,-361 106.62,-361 106.62,-361 100.62,-361 94.62,-355 94.62,-349 94.62,-349 94.62,-337 94.62,-337 94.62,-331 100.62,-325 106.62,-325 106.62,-325 159.38,-325 159.38,-325 165.38,-325 171.38,-331 171.38,-337 171.38,-337 171.38,-349 171.38,-349 171.38,-355 165.38,-361 159.38,-361"/>
<text text-anchor="middle" x="133" y="-337.95" font-family="Times,serif" font-size="14.00">223: save()</text>
</g>
<!-- node_e2279113&#45;&gt;node_57ea54ee -->
<g id="edge12" class="edge">
<title>node_e2279113&#45;&gt;node_57ea54ee</title>
<path fill="none" stroke="#009e73" stroke-width="2" d="M171.77,-334C224.87,-334 313.72,-334 313.72,-334 313.72,-334 313.72,-282.45 313.72,-282.45"/>
<polygon fill="#009e73" stroke="#009e73" stroke-width="2" points="317.22,-282.45 313.72,-272.45 310.22,-282.45 317.22,-282.45"/>
</g>
<!-- node_07e2bfd3 -->
<g id="node15" class="node">
<title>node_07e2bfd3</title>
<path fill="#6db33f" stroke="black" d="M402.75,-160C402.75,-160 326.75,-160 326.75,-160 320.75,-160 314.75,-154 314.75,-148 314.75,-148 314.75,-136 314.75,-136 314.75,-130 320.75,-124 326.75,-124 326.75,-124 402.75,-124 402.75,-124 408.75,-124 414.75,-130 414.75,-136 414.75,-136 414.75,-148 414.75,-148 414.75,-154 408.75,-160 402.75,-160"/>
<text text-anchor="middle" x="364.75" y="-136.95" font-family="Times,serif" font-size="14.00">21: create_dir()</text>
</g>
<!-- node_e2279113&#45;&gt;node_07e2bfd3 -->
<g id="edge13" class="edge">
<title>node_e2279113&#45;&gt;node_07e2bfd3</title>
<path fill="none" stroke="#009e73" stroke-width="2" d="M171.51,-329.5C223.18,-329.5 308.5,-329.5 308.5,-329.5 308.5,-329.5 308.5,-142 308.5,-142 308.5,-142 309.1,-142 309.1,-142"/>
<polygon fill="#009e73" stroke="#009e73" stroke-width="2" points="301.49,-145.5 311.49,-142 301.49,-138.5 301.49,-145.5"/>
</g>
</g>
</svg>
