<?xml version="1.0" encoding="UTF-8" standalone="no"?>
<!DOCTYPE svg PUBLIC "-//W3C//DTD SVG 1.1//EN"
 "http://www.w3.org/Graphics/SVG/1.1/DTD/svg11.dtd">
<!-- Generated by graphviz version 12.2.0 (20241103.1931)
 -->
<!-- Title: G Pages: 1 -->
<svg width="857pt" height="1927pt"
 viewBox="0.00 0.00 857.00 1927.00" xmlns="http://www.w3.org/2000/svg" xmlns:xlink="http://www.w3.org/1999/xlink">
<g id="graph0" class="graph" transform="scale(1 1) rotate(0) translate(4 1923)">
<title>G</title>
<polygon fill="white" stroke="none" points="-4,4 -4,-1923 853,-1923 853,4 -4,4"/>
<g id="clust2" class="cluster">
<title>cluster_cb2b36aa</title>
<polygon fill="none" stroke="black" stroke-dasharray="1,5" points="83.88,-147 83.88,-224 183.12,-224 183.12,-147 83.88,-147"/>
<text text-anchor="middle" x="133.5" y="-206.7" font-family="Times,serif" font-size="14.00">File: __main__</text>
</g>
<g id="clust3" class="cluster">
<title>cluster_d95241fe</title>
<polygon fill="none" stroke="black" stroke-dasharray="1,5" points="302,-309 302,-427 485.5,-427 485.5,-309 302,-309"/>
<text text-anchor="middle" x="393.75" y="-409.7" font-family="Times,serif" font-size="14.00">File: _base</text>
</g>
<g id="clust4" class="cluster">
<title>cluster_63a4b020</title>
<polygon fill="none" stroke="black" stroke-dasharray="1,5" points="310,-317 310,-394 477.5,-394 477.5,-317 310,-317"/>
<text text-anchor="middle" x="393.75" y="-376.7" font-family="Times,serif" font-size="14.00">Class: BaseHTTPException</text>
</g>
<g id="clust5" class="cluster">
<title>cluster_3141315d</title>
<polygon fill="none" stroke="black" stroke-dasharray="1,5" points="320.38,-629 320.38,-747 467.12,-747 467.12,-629 320.38,-629"/>
<text text-anchor="middle" x="393.75" y="-729.7" font-family="Times,serif" font-size="14.00">File: _base</text>
</g>
<g id="clust6" class="cluster">
<title>cluster_409d4f64</title>
<polygon fill="none" stroke="black" stroke-dasharray="1,5" points="328.38,-637 328.38,-714 459.12,-714 459.12,-637 328.38,-637"/>
<text text-anchor="middle" x="393.75" y="-696.7" font-family="Times,serif" font-size="14.00">Class: BaseResponse</text>
</g>
<g id="clust7" class="cluster">
<title>cluster_c905279d</title>
<polygon fill="none" stroke="black" stroke-dasharray="1,5" points="68.62,-1020 68.62,-1115 197.38,-1115 197.38,-1020 68.62,-1020"/>
<text text-anchor="middle" x="133" y="-1097.7" font-family="Times,serif" font-size="14.00">File: _base</text>
</g>
<g id="clust8" class="cluster">
<title>cluster_e9150441</title>
<polygon fill="none" stroke="black" stroke-dasharray="1,5" points="319.88,-1147 319.88,-1332 841,-1332 841,-1147 319.88,-1147"/>
<text text-anchor="middle" x="580.44" y="-1314.7" font-family="Times,serif" font-size="14.00">File: _dt</text>
</g>
<g id="clust9" class="cluster">
<title>cluster_c33e610b</title>
<polygon fill="none" stroke="black" stroke-dasharray="1,5" points="38.25,-935 38.25,-1012 227.75,-1012 227.75,-935 38.25,-935"/>
<text text-anchor="middle" x="133" y="-994.7" font-family="Times,serif" font-size="14.00">File: _http_exception</text>
</g>
<g id="clust10" class="cluster">
<title>cluster_f88f2a75</title>
<polygon fill="none" stroke="black" stroke-dasharray="1,5" points="44.25,-1340 44.25,-1579 479.38,-1579 479.38,-1340 44.25,-1340"/>
<text text-anchor="middle" x="261.81" y="-1561.7" font-family="Times,serif" font-size="14.00">File: _io</text>
</g>
<g id="clust11" class="cluster">
<title>cluster_d33f4f24</title>
<polygon fill="none" stroke="black" stroke-dasharray="1,5" points="21,-850 21,-927 245,-927 245,-850 21,-850"/>
<text text-anchor="middle" x="133" y="-909.7" font-family="Times,serif" font-size="14.00">File: _method_not_allowed</text>
</g>
<g id="clust12" class="cluster">
<title>cluster_991399e1</title>
<polygon fill="none" stroke="black" stroke-dasharray="1,5" points="50.62,-765 50.62,-842 215.38,-842 215.38,-765 50.62,-765"/>
<text text-anchor="middle" x="133" y="-824.7" font-family="Times,serif" font-size="14.00">File: _not_found</text>
</g>
<g id="clust13" class="cluster">
<title>cluster_22736874</title>
<polygon fill="none" stroke="black" stroke-dasharray="1,5" points="61.88,-1123 61.88,-1254 204.12,-1254 204.12,-1123 61.88,-1123"/>
<text text-anchor="middle" x="133" y="-1236.7" font-family="Times,serif" font-size="14.00">File: _secure</text>
</g>
<g id="clust14" class="cluster">
<title>cluster_ae6462e0</title>
<polygon fill="none" stroke="black" stroke-dasharray="1,5" points="45.38,-680 45.38,-757 220.62,-757 220.62,-680 45.38,-680"/>
<text text-anchor="middle" x="133" y="-739.7" font-family="Times,serif" font-size="14.00">File: _server_error</text>
</g>
<g id="clust15" class="cluster">
<title>cluster_e8026b21</title>
<polygon fill="none" stroke="black" stroke-dasharray="1,5" points="34.88,-595 34.88,-672 231.12,-672 231.12,-595 34.88,-595"/>
<text text-anchor="middle" x="133" y="-654.7" font-family="Times,serif" font-size="14.00">File: _validation_error</text>
</g>
<g id="clust16" class="cluster">
<title>cluster_5f211552</title>
<polygon fill="none" stroke="black" stroke-dasharray="1,5" points="81,-1587 81,-1664 448.25,-1664 448.25,-1587 81,-1587"/>
<text text-anchor="middle" x="264.62" y="-1646.7" font-family="Times,serif" font-size="14.00">File: _validator</text>
</g>
<g id="clust17" class="cluster">
<title>cluster_bcd1ec0d</title>
<polygon fill="none" stroke="black" stroke-dasharray="1,5" points="58.25,-232 58.25,-394 208.75,-394 208.75,-232 58.25,-232"/>
<text text-anchor="middle" x="133.5" y="-376.7" font-family="Times,serif" font-size="14.00">File: auth</text>
</g>
<g id="clust18" class="cluster">
<title>cluster_33fe8df9</title>
<polygon fill="none" stroke="black" stroke-dasharray="1,5" points="66.25,-240 66.25,-317 200.75,-317 200.75,-240 66.25,-240"/>
<text text-anchor="middle" x="133.5" y="-299.7" font-family="Times,serif" font-size="14.00">Class: AuthScopeDep</text>
</g>
<g id="clust19" class="cluster">
<title>cluster_486401f9</title>
<polygon fill="none" stroke="black" stroke-dasharray="1,5" points="508,-178 508,-255 701.25,-255 701.25,-178 508,-178"/>
<text text-anchor="middle" x="604.62" y="-237.7" font-family="Times,serif" font-size="14.00">File: exception</text>
</g>
<g id="clust20" class="cluster">
<title>cluster_94317304</title>
<polygon fill="none" stroke="black" stroke-dasharray="1,5" points="343.12,-972 343.12,-1139 443.38,-1139 443.38,-972 343.12,-972"/>
<text text-anchor="middle" x="393.25" y="-1121.7" font-family="Times,serif" font-size="14.00">File: jwt</text>
</g>
<g id="clust21" class="cluster">
<title>cluster_831563c2</title>
<polygon fill="none" stroke="black" stroke-dasharray="1,5" points="525.62,-93 525.62,-170 683.62,-170 683.62,-93 525.62,-93"/>
<text text-anchor="middle" x="604.62" y="-152.7" font-family="Times,serif" font-size="14.00">File: middleware</text>
</g>
<g id="clust22" class="cluster">
<title>cluster_f78a59e5</title>
<polygon fill="none" stroke="black" stroke-dasharray="1,5" points="541.75,-8 541.75,-85 667.5,-85 667.5,-8 541.75,-8"/>
<text text-anchor="middle" x="604.62" y="-67.7" font-family="Times,serif" font-size="14.00">File: router</text>
</g>
<g id="clust23" class="cluster">
<title>cluster_24bc7e5f</title>
<polygon fill="none" stroke="black" stroke-dasharray="1,5" points="55.88,-1672 55.88,-1911 488,-1911 488,-1672 55.88,-1672"/>
<text text-anchor="middle" x="271.94" y="-1893.7" font-family="Times,serif" font-size="14.00">File: rsa</text>
</g>
<g id="clust24" class="cluster">
<title>cluster_6c25b6f6</title>
<polygon fill="none" stroke="black" stroke-dasharray="1,5" points="333.38,-93 333.38,-224 453.12,-224 453.12,-93 333.38,-93"/>
<text text-anchor="middle" x="393.25" y="-206.7" font-family="Times,serif" font-size="14.00">File: server</text>
</g>
<g id="clust25" class="cluster">
<title>cluster_ad3a3425</title>
<polygon fill="none" stroke="black" stroke-dasharray="1,5" points="73.88,-402 73.88,-587 192.12,-587 192.12,-402 73.88,-402"/>
<text text-anchor="middle" x="133" y="-569.7" font-family="Times,serif" font-size="14.00">File: utils</text>
</g>
<!-- Legend -->
<g id="node1" class="node">
<title>Legend</title>
<polygon fill="none" stroke="black" points="1,-117.75 1,-136.25 265,-136.25 265,-117.75 1,-117.75"/>
<text text-anchor="start" x="80.88" y="-121.95" font-family="Times,serif" font-size="14.00">Code2flow Legend</text>
<polygon fill="none" stroke="black" points="1,-23.75 1,-117.75 265,-117.75 265,-23.75 1,-23.75"/>
<polygon fill="none" stroke="black" points="3,-93.25 3,-115.75 213,-115.75 213,-93.25 3,-93.25"/>
<text text-anchor="start" x="62.25" y="-99.45" font-family="Times,serif" font-size="14.00">Regular function</text>
<polygon fill="#cccccc" stroke="none" points="213,-93.25 213,-115.75 263,-115.75 263,-93.25 213,-93.25"/>
<polygon fill="none" stroke="black" points="213,-93.25 213,-115.75 263,-115.75 263,-93.25 213,-93.25"/>
<polygon fill="none" stroke="black" points="3,-70.75 3,-93.25 213,-93.25 213,-70.75 3,-70.75"/>
<text text-anchor="start" x="14.25" y="-76.95" font-family="Times,serif" font-size="14.00">Trunk function (nothing calls this)</text>
<polygon fill="#966f33" stroke="none" points="213,-70.75 213,-93.25 263,-93.25 263,-70.75 213,-70.75"/>
<polygon fill="none" stroke="black" points="213,-70.75 213,-93.25 263,-93.25 263,-70.75 213,-70.75"/>
<polygon fill="none" stroke="black" points="3,-48.25 3,-70.75 213,-70.75 213,-48.25 3,-48.25"/>
<text text-anchor="start" x="6" y="-54.45" font-family="Times,serif" font-size="14.00">Leaf function (this calls nothing else)</text>
<polygon fill="#6db33f" stroke="none" points="213,-48.25 213,-70.75 263,-70.75 263,-48.25 213,-48.25"/>
<polygon fill="none" stroke="black" points="213,-48.25 213,-70.75 263,-70.75 263,-48.25 213,-48.25"/>
<polygon fill="none" stroke="black" points="3,-25.75 3,-48.25 213,-48.25 213,-25.75 3,-25.75"/>
<text text-anchor="start" x="72.38" y="-31.95" font-family="Times,serif" font-size="14.00">Function call</text>
<polygon fill="none" stroke="black" points="213,-25.75 213,-48.25 263,-48.25 263,-25.75 213,-25.75"/>
<text text-anchor="start" x="230.88" y="-31.95" font-family="Times,serif" font-size="14.00">→</text>
<polygon fill="none" stroke="black" points="2,-24.75 2,-116.75 264,-116.75 264,-24.75 2,-24.75"/>
<polygon fill="none" stroke="black" points="0,-22.75 0,-137.25 266,-137.25 266,-22.75 0,-22.75"/>
</g>
<!-- node_a496e476 -->
<g id="node2" class="node">
<title>node_a496e476</title>
<path fill="#966f33" stroke="black" d="M162,-191C162,-191 104,-191 104,-191 98,-191 92,-185 92,-179 92,-179 92,-167 92,-167 92,-161 98,-155 104,-155 104,-155 162,-155 162,-155 168,-155 174,-161 174,-167 174,-167 174,-179 174,-179 174,-185 168,-191 162,-191"/>
<text text-anchor="middle" x="133" y="-167.95" font-family="Times,serif" font-size="14.00">0: (global)()</text>
</g>
<!-- node_b5f7871b -->
<g id="node44" class="node">
<title>node_b5f7871b</title>
<path fill="#6db33f" stroke="black" d="M433.12,-191C433.12,-191 353.38,-191 353.38,-191 347.38,-191 341.38,-185 341.38,-179 341.38,-179 341.38,-167 341.38,-167 341.38,-161 347.38,-155 353.38,-155 353.38,-155 433.12,-155 433.12,-155 439.12,-155 445.12,-161 445.12,-167 445.12,-167 445.12,-179 445.12,-179 445.12,-185 439.12,-191 433.12,-191"/>
<text text-anchor="middle" x="393.25" y="-167.95" font-family="Times,serif" font-size="14.00">31: run_server()</text>
</g>
<!-- node_a496e476&#45;&gt;node_b5f7871b -->
<g id="edge1" class="edge">
<title>node_a496e476&#45;&gt;node_b5f7871b</title>
<path fill="none" stroke="#d55e00" stroke-width="2" d="M174.24,-173C174.24,-173 327.95,-173 327.95,-173"/>
<polygon fill="#d55e00" stroke="#d55e00" stroke-width="2" points="327.95,-176.5 337.95,-173 327.95,-169.5 327.95,-176.5"/>
</g>
<!-- node_1aa00795 -->
<g id="node3" class="node">
<title>node_1aa00795</title>
<path fill="#6db33f" stroke="black" d="M426.75,-361C426.75,-361 359.75,-361 359.75,-361 353.75,-361 347.75,-355 347.75,-349 347.75,-349 347.75,-337 347.75,-337 347.75,-331 353.75,-325 359.75,-325 359.75,-325 426.75,-325 426.75,-325 432.75,-325 438.75,-331 438.75,-337 438.75,-337 438.75,-349 438.75,-349 438.75,-355 432.75,-361 426.75,-361"/>
<text text-anchor="middle" x="393.25" y="-337.95" font-family="Times,serif" font-size="14.00">19: __init__()</text>
</g>
<!-- node_5a8a21be -->
<g id="node4" class="node">
<title>node_5a8a21be</title>
<path fill="#6db33f" stroke="black" d="M426.75,-681C426.75,-681 359.75,-681 359.75,-681 353.75,-681 347.75,-675 347.75,-669 347.75,-669 347.75,-657 347.75,-657 347.75,-651 353.75,-645 359.75,-645 359.75,-645 426.75,-645 426.75,-645 432.75,-645 438.75,-651 438.75,-657 438.75,-657 438.75,-669 438.75,-669 438.75,-675 432.75,-681 426.75,-681"/>
<text text-anchor="middle" x="393.25" y="-657.95" font-family="Times,serif" font-size="14.00">26: __init__()</text>
</g>
<!-- node_331408f7 -->
<g id="node5" class="node">
<title>node_331408f7</title>
<path fill="#cccccc" stroke="black" d="M177.38,-1064C177.38,-1064 88.62,-1064 88.62,-1064 82.62,-1064 76.62,-1058 76.62,-1052 76.62,-1052 76.62,-1040 76.62,-1040 76.62,-1034 82.62,-1028 88.62,-1028 88.62,-1028 177.38,-1028 177.38,-1028 183.38,-1028 189.38,-1034 189.38,-1040 189.38,-1040 189.38,-1052 189.38,-1052 189.38,-1058 183.38,-1064 177.38,-1064"/>
<text text-anchor="middle" x="133" y="-1040.95" font-family="Times,serif" font-size="14.00">12: deep_merge()</text>
</g>
<!-- node_331408f7&#45;&gt;node_331408f7 -->
<g id="edge2" class="edge">
<title>node_331408f7&#45;&gt;node_331408f7</title>
<path fill="none" stroke="#cc79a7" stroke-width="2" d="M76.22,-1046C67.76,-1046 61.81,-1046 61.81,-1046 61.81,-1046 61.81,-1024 61.81,-1024 61.81,-1024 204.19,-1024 204.19,-1024 204.19,-1024 204.19,-1036 204.19,-1036 204.19,-1036 202.75,-1036 202.75,-1036"/>
<polygon fill="#cc79a7" stroke="#cc79a7" stroke-width="2" points="202.81,-1032.5 192.81,-1036 202.81,-1039.5 202.81,-1032.5"/>
</g>
<!-- node_f638ea9c -->
<g id="node6" class="node">
<title>node_f638ea9c</title>
<path fill="#6db33f" stroke="black" d="M821,-1218C821,-1218 741.25,-1218 741.25,-1218 735.25,-1218 729.25,-1212 729.25,-1206 729.25,-1206 729.25,-1194 729.25,-1194 729.25,-1188 735.25,-1182 741.25,-1182 741.25,-1182 821,-1182 821,-1182 827,-1182 833,-1188 833,-1194 833,-1194 833,-1206 833,-1206 833,-1212 827,-1218 821,-1218"/>
<text text-anchor="middle" x="781.12" y="-1194.95" font-family="Times,serif" font-size="14.00">23: add_tzinfo()</text>
</g>
<!-- node_4d0ee0b5 -->
<g id="node7" class="node">
<title>node_4d0ee0b5</title>
<path fill="#966f33" stroke="black" d="M446.62,-1191C446.62,-1191 339.88,-1191 339.88,-1191 333.88,-1191 327.88,-1185 327.88,-1179 327.88,-1179 327.88,-1167 327.88,-1167 327.88,-1161 333.88,-1155 339.88,-1155 339.88,-1155 446.62,-1155 446.62,-1155 452.62,-1155 458.62,-1161 458.62,-1167 458.62,-1167 458.62,-1179 458.62,-1179 458.62,-1185 452.62,-1191 446.62,-1191"/>
<text text-anchor="middle" x="393.25" y="-1167.95" font-family="Times,serif" font-size="14.00">206: calc_future_dt()</text>
</g>
<!-- node_1e988a99 -->
<g id="node8" class="node">
<title>node_1e988a99</title>
<path fill="#cccccc" stroke="black" d="M644.12,-1245C644.12,-1245 565.12,-1245 565.12,-1245 559.12,-1245 553.12,-1239 553.12,-1233 553.12,-1233 553.12,-1221 553.12,-1221 553.12,-1215 559.12,-1209 565.12,-1209 565.12,-1209 644.12,-1209 644.12,-1209 650.12,-1209 656.12,-1215 656.12,-1221 656.12,-1221 656.12,-1233 656.12,-1233 656.12,-1239 650.12,-1245 644.12,-1245"/>
<text text-anchor="middle" x="604.62" y="-1221.95" font-family="Times,serif" font-size="14.00">79: convert_tz()</text>
</g>
<!-- node_4d0ee0b5&#45;&gt;node_1e988a99 -->
<g id="edge3" class="edge">
<title>node_4d0ee0b5&#45;&gt;node_1e988a99</title>
<path fill="none" stroke="#0072b2" stroke-width="2" d="M452.38,-1191.3C452.38,-1203.76 452.38,-1218 452.38,-1218 452.38,-1218 539.63,-1218 539.63,-1218"/>
<polygon fill="#0072b2" stroke="#0072b2" stroke-width="2" points="539.63,-1221.5 549.63,-1218 539.63,-1214.5 539.63,-1221.5"/>
</g>
<!-- node_0918b30b -->
<g id="node12" class="node">
<title>node_0918b30b</title>
<path fill="#6db33f" stroke="black" d="M650.88,-1299C650.88,-1299 558.38,-1299 558.38,-1299 552.38,-1299 546.38,-1293 546.38,-1287 546.38,-1287 546.38,-1275 546.38,-1275 546.38,-1269 552.38,-1263 558.38,-1263 558.38,-1263 650.88,-1263 650.88,-1263 656.88,-1263 662.88,-1269 662.88,-1275 662.88,-1275 662.88,-1287 662.88,-1287 662.88,-1293 656.88,-1299 650.88,-1299"/>
<text text-anchor="middle" x="604.62" y="-1275.95" font-family="Times,serif" font-size="14.00">118: now_utc_dt()</text>
</g>
<!-- node_4d0ee0b5&#45;&gt;node_0918b30b -->
<g id="edge4" class="edge">
<title>node_4d0ee0b5&#45;&gt;node_0918b30b</title>
<path fill="none" stroke="#0072b2" stroke-width="2" d="M446.12,-1191.32C446.12,-1223.54 446.12,-1287 446.12,-1287 446.12,-1287 533.03,-1287 533.03,-1287"/>
<polygon fill="#0072b2" stroke="#0072b2" stroke-width="2" points="533.03,-1290.5 543.03,-1287 533.03,-1283.5 533.03,-1290.5"/>
</g>
<!-- node_1e988a99&#45;&gt;node_f638ea9c -->
<g id="edge5" class="edge">
<title>node_1e988a99&#45;&gt;node_f638ea9c</title>
<path fill="none" stroke="#e69f00" stroke-width="2" d="M656.15,-1213.5C656.15,-1213.5 715.9,-1213.5 715.9,-1213.5"/>
<polygon fill="#e69f00" stroke="#e69f00" stroke-width="2" points="715.9,-1217 725.9,-1213.5 715.9,-1210 715.9,-1217"/>
</g>
<!-- node_f350e40d -->
<g id="node9" class="node">
<title>node_f350e40d</title>
<path fill="#966f33" stroke="black" d="M659.12,-1191C659.12,-1191 550.12,-1191 550.12,-1191 544.12,-1191 538.12,-1185 538.12,-1179 538.12,-1179 538.12,-1167 538.12,-1167 538.12,-1161 544.12,-1155 550.12,-1155 550.12,-1155 659.12,-1155 659.12,-1155 665.12,-1155 671.12,-1161 671.12,-1167 671.12,-1167 671.12,-1179 671.12,-1179 671.12,-1185 665.12,-1191 659.12,-1191"/>
<text text-anchor="middle" x="604.62" y="-1167.95" font-family="Times,serif" font-size="14.00">42: datetime_to_iso()</text>
</g>
<!-- node_f350e40d&#45;&gt;node_f638ea9c -->
<g id="edge6" class="edge">
<title>node_f350e40d&#45;&gt;node_f638ea9c</title>
<path fill="none" stroke="#0072b2" stroke-width="2" d="M671.6,-1186.5C671.6,-1186.5 715.73,-1186.5 715.73,-1186.5"/>
<polygon fill="#0072b2" stroke="#0072b2" stroke-width="2" points="715.73,-1190 725.73,-1186.5 715.73,-1183 715.73,-1190"/>
</g>
<!-- node_6930ca5a -->
<g id="node10" class="node">
<title>node_6930ca5a</title>
<path fill="#966f33" stroke="black" d="M427.88,-1245C427.88,-1245 358.62,-1245 358.62,-1245 352.62,-1245 346.62,-1239 346.62,-1233 346.62,-1233 346.62,-1221 346.62,-1221 346.62,-1215 352.62,-1209 358.62,-1209 358.62,-1209 427.88,-1209 427.88,-1209 433.88,-1209 439.88,-1215 439.88,-1221 439.88,-1221 439.88,-1233 439.88,-1233 439.88,-1239 433.88,-1245 427.88,-1245"/>
<text text-anchor="middle" x="393.25" y="-1221.95" font-family="Times,serif" font-size="14.00">141: now_dt()</text>
</g>
<!-- node_6930ca5a&#45;&gt;node_1e988a99 -->
<g id="edge7" class="edge">
<title>node_6930ca5a&#45;&gt;node_1e988a99</title>
<path fill="none" stroke="#56b4e9" stroke-width="2" d="M440.16,-1227C440.16,-1227 539.63,-1227 539.63,-1227"/>
<polygon fill="#56b4e9" stroke="#56b4e9" stroke-width="2" points="539.63,-1230.5 549.63,-1227 539.63,-1223.5 539.63,-1230.5"/>
</g>
<!-- node_6930ca5a&#45;&gt;node_0918b30b -->
<g id="edge8" class="edge">
<title>node_6930ca5a&#45;&gt;node_0918b30b</title>
<path fill="none" stroke="#56b4e9" stroke-width="2" d="M440.25,-1236C452.61,-1236 462.56,-1236 462.56,-1236 462.56,-1236 462.56,-1275 462.56,-1275 462.56,-1275 533,-1275 533,-1275"/>
<polygon fill="#56b4e9" stroke="#56b4e9" stroke-width="2" points="533,-1278.5 543,-1275 533,-1271.5 533,-1278.5"/>
</g>
<!-- node_2768828f -->
<g id="node11" class="node">
<title>node_2768828f</title>
<path fill="#6db33f" stroke="black" d="M427.12,-1299C427.12,-1299 359.38,-1299 359.38,-1299 353.38,-1299 347.38,-1293 347.38,-1287 347.38,-1287 347.38,-1275 347.38,-1275 347.38,-1269 353.38,-1263 359.38,-1263 359.38,-1263 427.12,-1263 427.12,-1263 433.12,-1263 439.12,-1269 439.12,-1275 439.12,-1275 439.12,-1287 439.12,-1287 439.12,-1293 433.12,-1299 427.12,-1299"/>
<text text-anchor="middle" x="393.25" y="-1275.95" font-family="Times,serif" font-size="14.00">157: now_ts()</text>
</g>
<!-- node_ffc3609f -->
<g id="node13" class="node">
<title>node_ffc3609f</title>
<path fill="#966f33" stroke="black" d="M207.75,-979C207.75,-979 58.25,-979 58.25,-979 52.25,-979 46.25,-973 46.25,-967 46.25,-967 46.25,-955 46.25,-955 46.25,-949 52.25,-943 58.25,-943 58.25,-943 207.75,-943 207.75,-943 213.75,-943 219.75,-949 219.75,-955 219.75,-955 219.75,-967 219.75,-967 219.75,-973 213.75,-979 207.75,-979"/>
<text text-anchor="middle" x="133" y="-955.95" font-family="Times,serif" font-size="14.00">13: http_exception_handler()</text>
</g>
<!-- node_ffc3609f&#45;&gt;node_5a8a21be -->
<g id="edge9" class="edge">
<title>node_ffc3609f&#45;&gt;node_5a8a21be</title>
<path fill="none" stroke="#cc79a7" stroke-width="2" d="M220.08,-961C302.7,-961 414.31,-961 414.31,-961 414.31,-961 414.31,-694.22 414.31,-694.22"/>
<polygon fill="#cc79a7" stroke="#cc79a7" stroke-width="2" points="417.81,-694.22 414.31,-684.22 410.81,-694.22 417.81,-694.22"/>
</g>
<!-- node_06813371 -->
<g id="node14" class="node">
<title>node_06813371</title>
<path fill="#6db33f" stroke="black" d="M454.5,-1384C454.5,-1384 332,-1384 332,-1384 326,-1384 320,-1378 320,-1372 320,-1372 320,-1360 320,-1360 320,-1354 326,-1348 332,-1348 332,-1348 454.5,-1348 454.5,-1348 460.5,-1348 466.5,-1354 466.5,-1360 466.5,-1360 466.5,-1372 466.5,-1372 466.5,-1378 460.5,-1384 454.5,-1384"/>
<text text-anchor="middle" x="393.25" y="-1360.95" font-family="Times,serif" font-size="14.00">62: async_remove_dir()</text>
</g>
<!-- node_413befa7 -->
<g id="node15" class="node">
<title>node_413befa7</title>
<path fill="#966f33" stroke="black" d="M200.25,-1384C200.25,-1384 65.75,-1384 65.75,-1384 59.75,-1384 53.75,-1378 53.75,-1372 53.75,-1372 53.75,-1360 53.75,-1360 53.75,-1354 59.75,-1348 65.75,-1348 65.75,-1348 200.25,-1348 200.25,-1348 206.25,-1348 212.25,-1354 212.25,-1360 212.25,-1360 212.25,-1372 212.25,-1372 212.25,-1378 206.25,-1384 200.25,-1384"/>
<text text-anchor="middle" x="133" y="-1360.95" font-family="Times,serif" font-size="14.00">102: async_remove_dirs()</text>
</g>
<!-- node_413befa7&#45;&gt;node_06813371 -->
<g id="edge10" class="edge">
<title>node_413befa7&#45;&gt;node_06813371</title>
<path fill="none" stroke="#cc79a7" stroke-width="2" d="M212.5,-1366C212.5,-1366 306.54,-1366 306.54,-1366"/>
<polygon fill="#cc79a7" stroke="#cc79a7" stroke-width="2" points="306.54,-1369.5 316.54,-1366 306.54,-1362.5 306.54,-1369.5"/>
</g>
<!-- node_03e848d6 -->
<g id="node16" class="node">
<title>node_03e848d6</title>
<path fill="#6db33f" stroke="black" d="M459.38,-1438C459.38,-1438 327.12,-1438 327.12,-1438 321.12,-1438 315.12,-1432 315.12,-1426 315.12,-1426 315.12,-1414 315.12,-1414 315.12,-1408 321.12,-1402 327.12,-1402 327.12,-1402 459.38,-1402 459.38,-1402 465.38,-1402 471.38,-1408 471.38,-1414 471.38,-1414 471.38,-1426 471.38,-1426 471.38,-1432 465.38,-1438 459.38,-1438"/>
<text text-anchor="middle" x="393.25" y="-1414.95" font-family="Times,serif" font-size="14.00">120: async_remove_file()</text>
</g>
<!-- node_2038c3ea -->
<g id="node17" class="node">
<title>node_2038c3ea</title>
<path fill="#966f33" stroke="black" d="M201.75,-1438C201.75,-1438 64.25,-1438 64.25,-1438 58.25,-1438 52.25,-1432 52.25,-1426 52.25,-1426 52.25,-1414 52.25,-1414 52.25,-1408 58.25,-1402 64.25,-1402 64.25,-1402 201.75,-1402 201.75,-1402 207.75,-1402 213.75,-1408 213.75,-1414 213.75,-1414 213.75,-1426 213.75,-1426 213.75,-1432 207.75,-1438 201.75,-1438"/>
<text text-anchor="middle" x="133" y="-1414.95" font-family="Times,serif" font-size="14.00">160: async_remove_files()</text>
</g>
<!-- node_2038c3ea&#45;&gt;node_03e848d6 -->
<g id="edge11" class="edge">
<title>node_2038c3ea&#45;&gt;node_03e848d6</title>
<path fill="none" stroke="#56b4e9" stroke-width="2" d="M213.92,-1420C213.92,-1420 302.03,-1420 302.03,-1420"/>
<polygon fill="#56b4e9" stroke="#56b4e9" stroke-width="2" points="302.03,-1423.5 312.03,-1420 302.03,-1416.5 302.03,-1423.5"/>
</g>
<!-- node_80055fe8 -->
<g id="node18" class="node">
<title>node_80055fe8</title>
<path fill="#6db33f" stroke="black" d="M439.12,-1492C439.12,-1492 347.38,-1492 347.38,-1492 341.38,-1492 335.38,-1486 335.38,-1480 335.38,-1480 335.38,-1468 335.38,-1468 335.38,-1462 341.38,-1456 347.38,-1456 347.38,-1456 439.12,-1456 439.12,-1456 445.12,-1456 451.12,-1462 451.12,-1468 451.12,-1468 451.12,-1480 451.12,-1480 451.12,-1486 445.12,-1492 439.12,-1492"/>
<text text-anchor="middle" x="393.25" y="-1468.95" font-family="Times,serif" font-size="14.00">261: remove_dir()</text>
</g>
<!-- node_f324c0b5 -->
<g id="node19" class="node">
<title>node_f324c0b5</title>
<path fill="#966f33" stroke="black" d="M181.5,-1492C181.5,-1492 84.5,-1492 84.5,-1492 78.5,-1492 72.5,-1486 72.5,-1480 72.5,-1480 72.5,-1468 72.5,-1468 72.5,-1462 78.5,-1456 84.5,-1456 84.5,-1456 181.5,-1456 181.5,-1456 187.5,-1456 193.5,-1462 193.5,-1468 193.5,-1468 193.5,-1480 193.5,-1480 193.5,-1486 187.5,-1492 181.5,-1492"/>
<text text-anchor="middle" x="133" y="-1468.95" font-family="Times,serif" font-size="14.00">301: remove_dirs()</text>
</g>
<!-- node_f324c0b5&#45;&gt;node_80055fe8 -->
<g id="edge12" class="edge">
<title>node_f324c0b5&#45;&gt;node_80055fe8</title>
<path fill="none" stroke="#0072b2" stroke-width="2" d="M193.69,-1474C193.69,-1474 322.12,-1474 322.12,-1474"/>
<polygon fill="#0072b2" stroke="#0072b2" stroke-width="2" points="322.12,-1477.5 332.12,-1474 322.12,-1470.5 322.12,-1477.5"/>
</g>
<!-- node_81ec29b1 -->
<g id="node20" class="node">
<title>node_81ec29b1</title>
<path fill="#6db33f" stroke="black" d="M440.62,-1546C440.62,-1546 345.88,-1546 345.88,-1546 339.88,-1546 333.88,-1540 333.88,-1534 333.88,-1534 333.88,-1522 333.88,-1522 333.88,-1516 339.88,-1510 345.88,-1510 345.88,-1510 440.62,-1510 440.62,-1510 446.62,-1510 452.62,-1516 452.62,-1522 452.62,-1522 452.62,-1534 452.62,-1534 452.62,-1540 446.62,-1546 440.62,-1546"/>
<text text-anchor="middle" x="393.25" y="-1522.95" font-family="Times,serif" font-size="14.00">319: remove_file()</text>
</g>
<!-- node_6d349a93 -->
<g id="node21" class="node">
<title>node_6d349a93</title>
<path fill="#966f33" stroke="black" d="M183,-1546C183,-1546 83,-1546 83,-1546 77,-1546 71,-1540 71,-1534 71,-1534 71,-1522 71,-1522 71,-1516 77,-1510 83,-1510 83,-1510 183,-1510 183,-1510 189,-1510 195,-1516 195,-1522 195,-1522 195,-1534 195,-1534 195,-1540 189,-1546 183,-1546"/>
<text text-anchor="middle" x="133" y="-1522.95" font-family="Times,serif" font-size="14.00">359: remove_files()</text>
</g>
<!-- node_6d349a93&#45;&gt;node_81ec29b1 -->
<g id="edge13" class="edge">
<title>node_6d349a93&#45;&gt;node_81ec29b1</title>
<path fill="none" stroke="#009e73" stroke-width="2" d="M195.34,-1528C195.34,-1528 320.63,-1528 320.63,-1528"/>
<polygon fill="#009e73" stroke="#009e73" stroke-width="2" points="320.63,-1531.5 330.63,-1528 320.63,-1524.5 320.63,-1531.5"/>
</g>
<!-- node_05d195da -->
<g id="node22" class="node">
<title>node_05d195da</title>
<path fill="#966f33" stroke="black" d="M225,-894C225,-894 41,-894 41,-894 35,-894 29,-888 29,-882 29,-882 29,-870 29,-870 29,-864 35,-858 41,-858 41,-858 225,-858 225,-858 231,-858 237,-864 237,-870 237,-870 237,-882 237,-882 237,-888 231,-894 225,-894"/>
<text text-anchor="middle" x="133" y="-870.95" font-family="Times,serif" font-size="14.00">10: method_not_allowed_handler()</text>
</g>
<!-- node_05d195da&#45;&gt;node_5a8a21be -->
<g id="edge14" class="edge">
<title>node_05d195da&#45;&gt;node_5a8a21be</title>
<path fill="none" stroke="#56b4e9" stroke-width="2" d="M230.06,-857.63C230.06,-806.97 230.06,-669 230.06,-669 230.06,-669 334.33,-669 334.33,-669"/>
<polygon fill="#56b4e9" stroke="#56b4e9" stroke-width="2" points="334.33,-672.5 344.33,-669 334.33,-665.5 334.33,-672.5"/>
</g>
<!-- node_7aa0141b -->
<g id="node23" class="node">
<title>node_7aa0141b</title>
<path fill="#966f33" stroke="black" d="M195.38,-809C195.38,-809 70.62,-809 70.62,-809 64.62,-809 58.62,-803 58.62,-797 58.62,-797 58.62,-785 58.62,-785 58.62,-779 64.62,-773 70.62,-773 70.62,-773 195.38,-773 195.38,-773 201.38,-773 207.38,-779 207.38,-785 207.38,-785 207.38,-797 207.38,-797 207.38,-803 201.38,-809 195.38,-809"/>
<text text-anchor="middle" x="133" y="-785.95" font-family="Times,serif" font-size="14.00">10: not_found_handler()</text>
</g>
<!-- node_7aa0141b&#45;&gt;node_5a8a21be -->
<g id="edge15" class="edge">
<title>node_7aa0141b&#45;&gt;node_5a8a21be</title>
<path fill="none" stroke="#009e73" stroke-width="2" d="M207.58,-791C284.48,-791 393.25,-791 393.25,-791 393.25,-791 393.25,-694.37 393.25,-694.37"/>
<polygon fill="#009e73" stroke="#009e73" stroke-width="2" points="396.75,-694.37 393.25,-684.37 389.75,-694.37 396.75,-694.37"/>
</g>
<!-- node_f0faeab9 -->
<g id="node24" class="node">
<title>node_f0faeab9</title>
<path fill="#966f33" stroke="black" d="M184.12,-1221C184.12,-1221 81.88,-1221 81.88,-1221 75.88,-1221 69.88,-1215 69.88,-1209 69.88,-1209 69.88,-1197 69.88,-1197 69.88,-1191 75.88,-1185 81.88,-1185 81.88,-1185 184.12,-1185 184.12,-1185 190.12,-1185 196.12,-1191 196.12,-1197 196.12,-1197 196.12,-1209 196.12,-1209 196.12,-1215 190.12,-1221 184.12,-1221"/>
<text text-anchor="middle" x="133" y="-1197.95" font-family="Times,serif" font-size="14.00">15: gen_unique_id()</text>
</g>
<!-- node_f0faeab9&#45;&gt;node_2768828f -->
<g id="edge16" class="edge">
<title>node_f0faeab9&#45;&gt;node_2768828f</title>
<path fill="none" stroke="#e69f00" stroke-width="2" d="M133,-1221.48C133,-1244.55 133,-1281 133,-1281 133,-1281 334,-1281 334,-1281"/>
<polygon fill="#e69f00" stroke="#e69f00" stroke-width="2" points="334,-1284.5 344,-1281 334,-1277.5 334,-1284.5"/>
</g>
<!-- node_13bb67c0 -->
<g id="node25" class="node">
<title>node_13bb67c0</title>
<path fill="#966f33" stroke="black" d="M166.5,-1167C166.5,-1167 99.5,-1167 99.5,-1167 93.5,-1167 87.5,-1161 87.5,-1155 87.5,-1155 87.5,-1143 87.5,-1143 87.5,-1137 93.5,-1131 99.5,-1131 99.5,-1131 166.5,-1131 166.5,-1131 172.5,-1131 178.5,-1137 178.5,-1143 178.5,-1143 178.5,-1155 178.5,-1155 178.5,-1161 172.5,-1167 166.5,-1167"/>
<text text-anchor="middle" x="133" y="-1143.95" font-family="Times,serif" font-size="14.00">50: hash_str()</text>
</g>
<!-- node_4c2ac850 -->
<g id="node34" class="node">
<title>node_4c2ac850</title>
<path fill="#cccccc" stroke="black" d="M423.38,-1088C423.38,-1088 363.12,-1088 363.12,-1088 357.12,-1088 351.12,-1082 351.12,-1076 351.12,-1076 351.12,-1064 351.12,-1064 351.12,-1058 357.12,-1052 363.12,-1052 363.12,-1052 423.38,-1052 423.38,-1052 429.38,-1052 435.38,-1058 435.38,-1064 435.38,-1064 435.38,-1076 435.38,-1076 435.38,-1082 429.38,-1088 423.38,-1088"/>
<text text-anchor="middle" x="393.25" y="-1064.95" font-family="Times,serif" font-size="14.00">16: encode()</text>
</g>
<!-- node_13bb67c0&#45;&gt;node_4c2ac850 -->
<g id="edge17" class="edge">
<title>node_13bb67c0&#45;&gt;node_4c2ac850</title>
<path fill="none" stroke="#000000" stroke-width="2" d="M178.93,-1143C253.64,-1143 393.25,-1143 393.25,-1143 393.25,-1143 393.25,-1101.45 393.25,-1101.45"/>
<polygon fill="#000000" stroke="#000000" stroke-width="2" points="396.75,-1101.45 393.25,-1091.45 389.75,-1101.45 396.75,-1101.45"/>
</g>
<!-- node_3914d5e2 -->
<g id="node26" class="node">
<title>node_3914d5e2</title>
<path fill="#966f33" stroke="black" d="M200.62,-724C200.62,-724 65.38,-724 65.38,-724 59.38,-724 53.38,-718 53.38,-712 53.38,-712 53.38,-700 53.38,-700 53.38,-694 59.38,-688 65.38,-688 65.38,-688 200.62,-688 200.62,-688 206.62,-688 212.62,-694 212.62,-700 212.62,-700 212.62,-712 212.62,-712 212.62,-718 206.62,-724 200.62,-724"/>
<text text-anchor="middle" x="133" y="-700.95" font-family="Times,serif" font-size="14.00">15: server_error_handler()</text>
</g>
<!-- node_3914d5e2&#45;&gt;node_5a8a21be -->
<g id="edge18" class="edge">
<title>node_3914d5e2&#45;&gt;node_5a8a21be</title>
<path fill="none" stroke="#56b4e9" stroke-width="2" d="M212.98,-706C282.51,-706 372.19,-706 372.19,-706 372.19,-706 372.19,-694.51 372.19,-694.51"/>
<polygon fill="#56b4e9" stroke="#56b4e9" stroke-width="2" points="375.69,-694.51 372.19,-684.51 368.69,-694.51 375.69,-694.51"/>
</g>
<!-- node_6cb52947 -->
<g id="node27" class="node">
<title>node_6cb52947</title>
<path fill="#966f33" stroke="black" d="M211.12,-639C211.12,-639 54.87,-639 54.87,-639 48.88,-639 42.88,-633 42.88,-627 42.88,-627 42.88,-615 42.88,-615 42.88,-609 48.88,-603 54.88,-603 54.88,-603 211.12,-603 211.12,-603 217.12,-603 223.12,-609 223.12,-615 223.12,-615 223.12,-627 223.12,-627 223.12,-633 217.12,-639 211.12,-639"/>
<text text-anchor="middle" x="133" y="-615.95" font-family="Times,serif" font-size="14.00">11: validation_error_handler()</text>
</g>
<!-- node_6cb52947&#45;&gt;node_5a8a21be -->
<g id="edge19" class="edge">
<title>node_6cb52947&#45;&gt;node_5a8a21be</title>
<path fill="none" stroke="#cc79a7" stroke-width="2" d="M217.88,-639.42C217.88,-648.28 217.88,-657 217.88,-657 217.88,-657 334.6,-657 334.6,-657"/>
<polygon fill="#cc79a7" stroke="#cc79a7" stroke-width="2" points="334.6,-660.5 344.6,-657 334.6,-653.5 334.6,-660.5"/>
</g>
<!-- node_0b3717b6 -->
<g id="node28" class="node">
<title>node_0b3717b6</title>
<path fill="#966f33" stroke="black" d="M165,-1631C165,-1631 101,-1631 101,-1631 95,-1631 89,-1625 89,-1619 89,-1619 89,-1607 89,-1607 89,-1601 95,-1595 101,-1595 101,-1595 165,-1595 165,-1595 171,-1595 177,-1601 177,-1607 177,-1607 177,-1619 177,-1619 177,-1625 171,-1631 165,-1631"/>
<text text-anchor="middle" x="133" y="-1607.95" font-family="Times,serif" font-size="14.00">46: is_falsy()</text>
</g>
<!-- node_70687694 -->
<g id="node29" class="node">
<title>node_70687694</title>
<path fill="#6db33f" stroke="black" d="M428.25,-1631C428.25,-1631 358.25,-1631 358.25,-1631 352.25,-1631 346.25,-1625 346.25,-1619 346.25,-1619 346.25,-1607 346.25,-1607 346.25,-1601 352.25,-1595 358.25,-1595 358.25,-1595 428.25,-1595 428.25,-1595 434.25,-1595 440.25,-1601 440.25,-1607 440.25,-1607 440.25,-1619 440.25,-1619 440.25,-1625 434.25,-1631 428.25,-1631"/>
<text text-anchor="middle" x="393.25" y="-1607.95" font-family="Times,serif" font-size="14.00">19: is_truthy()</text>
</g>
<!-- node_0b3717b6&#45;&gt;node_70687694 -->
<g id="edge20" class="edge">
<title>node_0b3717b6&#45;&gt;node_70687694</title>
<path fill="none" stroke="#d55e00" stroke-width="2" d="M177.44,-1613C177.44,-1613 332.88,-1613 332.88,-1613"/>
<polygon fill="#d55e00" stroke="#d55e00" stroke-width="2" points="332.88,-1616.5 342.88,-1613 332.88,-1609.5 332.88,-1616.5"/>
</g>
<!-- node_ff8b5398 -->
<g id="node30" class="node">
<title>node_ff8b5398</title>
<path fill="#966f33" stroke="black" d="M170.62,-284C170.62,-284 95.38,-284 95.38,-284 89.38,-284 83.38,-278 83.38,-272 83.38,-272 83.38,-260 83.38,-260 83.38,-254 89.38,-248 95.38,-248 95.38,-248 170.62,-248 170.62,-248 176.62,-248 182.62,-254 182.62,-260 182.62,-260 182.62,-272 182.62,-272 182.62,-278 176.62,-284 170.62,-284"/>
<text text-anchor="middle" x="133" y="-260.95" font-family="Times,serif" font-size="14.00">112: __call__()</text>
</g>
<!-- node_ff8b5398&#45;&gt;node_1aa00795 -->
<g id="edge21" class="edge">
<title>node_ff8b5398&#45;&gt;node_1aa00795</title>
<path fill="none" stroke="#000000" stroke-width="2" d="M182.87,-266C258.44,-266 393.25,-266 393.25,-266 393.25,-266 393.25,-311.72 393.25,-311.72"/>
<polygon fill="#000000" stroke="#000000" stroke-width="2" points="389.75,-311.72 393.25,-321.72 396.75,-311.73 389.75,-311.72"/>
</g>
<!-- node_c5834d90 -->
<g id="node31" class="node">
<title>node_c5834d90</title>
<path fill="#966f33" stroke="black" d="M167.62,-361C167.62,-361 98.38,-361 98.38,-361 92.38,-361 86.38,-355 86.38,-349 86.38,-349 86.38,-337 86.38,-337 86.38,-331 92.38,-325 98.38,-325 98.38,-325 167.62,-325 167.62,-325 173.62,-325 179.62,-331 179.62,-337 179.62,-337 179.62,-349 179.62,-349 179.62,-355 173.62,-361 167.62,-361"/>
<text text-anchor="middle" x="133" y="-337.95" font-family="Times,serif" font-size="14.00">19: auth_jwt()</text>
</g>
<!-- node_c5834d90&#45;&gt;node_1aa00795 -->
<g id="edge22" class="edge">
<title>node_c5834d90&#45;&gt;node_1aa00795</title>
<path fill="none" stroke="#000000" stroke-width="2" d="M179.83,-343C179.83,-343 334.64,-343 334.64,-343"/>
<polygon fill="#000000" stroke="#000000" stroke-width="2" points="334.64,-346.5 344.64,-343 334.64,-339.5 334.64,-346.5"/>
</g>
<!-- node_a9aeca40 -->
<g id="node32" class="node">
<title>node_a9aeca40</title>
<path fill="#6db33f" stroke="black" d="M681.25,-222C681.25,-222 528,-222 528,-222 522,-222 516,-216 516,-210 516,-210 516,-198 516,-198 516,-192 522,-186 528,-186 528,-186 681.25,-186 681.25,-186 687.25,-186 693.25,-192 693.25,-198 693.25,-198 693.25,-210 693.25,-210 693.25,-216 687.25,-222 681.25,-222"/>
<text text-anchor="middle" x="604.62" y="-198.95" font-family="Times,serif" font-size="14.00">17: add_exception_handlers()</text>
</g>
<!-- node_1a9a5a5f -->
<g id="node33" class="node">
<title>node_1a9a5a5f</title>
<path fill="#cccccc" stroke="black" d="M423.38,-1016C423.38,-1016 363.12,-1016 363.12,-1016 357.12,-1016 351.12,-1010 351.12,-1004 351.12,-1004 351.12,-992 351.12,-992 351.12,-986 357.12,-980 363.12,-980 363.12,-980 423.38,-980 423.38,-980 429.38,-980 435.38,-986 435.38,-992 435.38,-992 435.38,-1004 435.38,-1004 435.38,-1010 429.38,-1016 423.38,-1016"/>
<text text-anchor="middle" x="393.25" y="-992.95" font-family="Times,serif" font-size="14.00">55: decode()</text>
</g>
<!-- node_1a9a5a5f&#45;&gt;node_1a9a5a5f -->
<g id="edge26" class="edge">
<title>node_1a9a5a5f&#45;&gt;node_1a9a5a5f</title>
<path fill="none" stroke="#cc79a7" stroke-width="2" d="M350.64,-998C340.41,-998 332.38,-998 332.38,-998 332.38,-998 332.38,-1020 332.38,-1020 332.38,-1020 449.62,-1020 449.62,-1020 449.62,-1020 449.62,-998 449.62,-998 449.62,-998 448.23,-998 448.23,-998"/>
<polygon fill="#cc79a7" stroke="#cc79a7" stroke-width="2" points="448.72,-994.5 438.72,-998 448.72,-1001.5 448.72,-994.5"/>
</g>
<!-- node_4c2ac850&#45;&gt;node_4c2ac850 -->
<g id="edge27" class="edge">
<title>node_4c2ac850&#45;&gt;node_4c2ac850</title>
<path fill="none" stroke="#000000" stroke-width="2" d="M350.81,-1058C342.8,-1058 336.88,-1058 336.88,-1058 336.88,-1058 336.88,-1044 336.88,-1044 336.88,-1044 454.12,-1044 454.12,-1044 454.12,-1044 454.12,-1070 454.12,-1070 454.12,-1070 448.89,-1070 448.89,-1070"/>
<polygon fill="#000000" stroke="#000000" stroke-width="2" points="448.89,-1066.5 438.89,-1070 448.89,-1073.5 448.89,-1066.5"/>
</g>
<!-- node_2ac9afc7 -->
<g id="node35" class="node">
<title>node_2ac9afc7</title>
<path fill="#6db33f" stroke="black" d="M663.62,-137C663.62,-137 545.62,-137 545.62,-137 539.62,-137 533.62,-131 533.62,-125 533.62,-125 533.62,-113 533.62,-113 533.62,-107 539.62,-101 545.62,-101 545.62,-101 663.62,-101 663.62,-101 669.62,-101 675.62,-107 675.62,-113 675.62,-113 675.62,-125 675.62,-125 675.62,-131 669.62,-137 663.62,-137"/>
<text text-anchor="middle" x="604.62" y="-113.95" font-family="Times,serif" font-size="14.00">20: add_middlewares()</text>
</g>
<!-- node_93fe0f9d -->
<g id="node36" class="node">
<title>node_93fe0f9d</title>
<path fill="#6db33f" stroke="black" d="M647.5,-52C647.5,-52 561.75,-52 561.75,-52 555.75,-52 549.75,-46 549.75,-40 549.75,-40 549.75,-28 549.75,-28 549.75,-22 555.75,-16 561.75,-16 561.75,-16 647.5,-16 647.5,-16 653.5,-16 659.5,-22 659.5,-28 659.5,-28 659.5,-40 659.5,-40 659.5,-46 653.5,-52 647.5,-52"/>
<text text-anchor="middle" x="604.62" y="-28.95" font-family="Times,serif" font-size="14.00">12: add_routers()</text>
</g>
<!-- node_6c3d9a0d -->
<g id="node37" class="node">
<title>node_6c3d9a0d</title>
<path fill="#966f33" stroke="black" d="M190.12,-1743C190.12,-1743 75.88,-1743 75.88,-1743 69.88,-1743 63.88,-1737 63.88,-1731 63.88,-1731 63.88,-1719 63.88,-1719 63.88,-1713 69.88,-1707 75.88,-1707 75.88,-1707 190.12,-1707 190.12,-1707 196.12,-1707 202.12,-1713 202.12,-1719 202.12,-1719 202.12,-1731 202.12,-1731 202.12,-1737 196.12,-1743 190.12,-1743"/>
<text text-anchor="middle" x="133" y="-1719.95" font-family="Times,serif" font-size="14.00">152: async_get_keys()</text>
</g>
<!-- node_fedc5a98 -->
<g id="node38" class="node">
<title>node_fedc5a98</title>
<path fill="#6db33f" stroke="black" d="M466.5,-1716C466.5,-1716 320,-1716 320,-1716 314,-1716 308,-1710 308,-1704 308,-1704 308,-1692 308,-1692 308,-1686 314,-1680 320,-1680 320,-1680 466.5,-1680 466.5,-1680 472.5,-1680 478.5,-1686 478.5,-1692 478.5,-1692 478.5,-1704 478.5,-1704 478.5,-1710 472.5,-1716 466.5,-1716"/>
<text text-anchor="middle" x="393.25" y="-1692.95" font-family="Times,serif" font-size="14.00">98: async_get_private_key()</text>
</g>
<!-- node_6c3d9a0d&#45;&gt;node_fedc5a98 -->
<g id="edge28" class="edge">
<title>node_6c3d9a0d&#45;&gt;node_fedc5a98</title>
<path fill="none" stroke="#0072b2" stroke-width="2" d="M202.4,-1711.5C202.4,-1711.5 294.75,-1711.5 294.75,-1711.5"/>
<polygon fill="#0072b2" stroke="#0072b2" stroke-width="2" points="294.75,-1715 304.75,-1711.5 294.75,-1708 294.75,-1715"/>
</g>
<!-- node_0bfa2808 -->
<g id="node39" class="node">
<title>node_0bfa2808</title>
<path fill="#6db33f" stroke="black" d="M468,-1770C468,-1770 318.5,-1770 318.5,-1770 312.5,-1770 306.5,-1764 306.5,-1758 306.5,-1758 306.5,-1746 306.5,-1746 306.5,-1740 312.5,-1734 318.5,-1734 318.5,-1734 468,-1734 468,-1734 474,-1734 480,-1740 480,-1746 480,-1746 480,-1758 480,-1758 480,-1764 474,-1770 468,-1770"/>
<text text-anchor="middle" x="393.25" y="-1746.95" font-family="Times,serif" font-size="14.00">125: async_get_public_key()</text>
</g>
<!-- node_6c3d9a0d&#45;&gt;node_0bfa2808 -->
<g id="edge29" class="edge">
<title>node_6c3d9a0d&#45;&gt;node_0bfa2808</title>
<path fill="none" stroke="#0072b2" stroke-width="2" d="M202.4,-1738.5C202.4,-1738.5 293.32,-1738.5 293.32,-1738.5"/>
<polygon fill="#0072b2" stroke="#0072b2" stroke-width="2" points="293.32,-1742 303.32,-1738.5 293.32,-1735 293.32,-1742"/>
</g>
<!-- node_b2dd151c -->
<g id="node40" class="node">
<title>node_b2dd151c</title>
<path fill="#966f33" stroke="black" d="M171.38,-1851C171.38,-1851 94.62,-1851 94.62,-1851 88.62,-1851 82.62,-1845 82.62,-1839 82.62,-1839 82.62,-1827 82.62,-1827 82.62,-1821 88.62,-1815 94.62,-1815 94.62,-1815 171.38,-1815 171.38,-1815 177.38,-1815 183.38,-1821 183.38,-1827 183.38,-1827 183.38,-1839 183.38,-1839 183.38,-1845 177.38,-1851 171.38,-1851"/>
<text text-anchor="middle" x="133" y="-1827.95" font-family="Times,serif" font-size="14.00">299: get_keys()</text>
</g>
<!-- node_69cfb752 -->
<g id="node41" class="node">
<title>node_69cfb752</title>
<path fill="#6db33f" stroke="black" d="M451.12,-1824C451.12,-1824 335.38,-1824 335.38,-1824 329.38,-1824 323.38,-1818 323.38,-1812 323.38,-1812 323.38,-1800 323.38,-1800 323.38,-1794 329.38,-1788 335.38,-1788 335.38,-1788 451.12,-1788 451.12,-1788 457.12,-1788 463.12,-1794 463.12,-1800 463.12,-1800 463.12,-1812 463.12,-1812 463.12,-1818 457.12,-1824 451.12,-1824"/>
<text text-anchor="middle" x="393.25" y="-1800.95" font-family="Times,serif" font-size="14.00">245: get_private_key()</text>
</g>
<!-- node_b2dd151c&#45;&gt;node_69cfb752 -->
<g id="edge30" class="edge">
<title>node_b2dd151c&#45;&gt;node_69cfb752</title>
<path fill="none" stroke="#f0e442" stroke-width="2" d="M183.8,-1819.5C183.8,-1819.5 309.87,-1819.5 309.87,-1819.5"/>
<polygon fill="#f0e442" stroke="#f0e442" stroke-width="2" points="309.87,-1823 319.87,-1819.5 309.87,-1816 309.87,-1823"/>
</g>
<!-- node_2545e901 -->
<g id="node42" class="node">
<title>node_2545e901</title>
<path fill="#6db33f" stroke="black" d="M449.25,-1878C449.25,-1878 337.25,-1878 337.25,-1878 331.25,-1878 325.25,-1872 325.25,-1866 325.25,-1866 325.25,-1854 325.25,-1854 325.25,-1848 331.25,-1842 337.25,-1842 337.25,-1842 449.25,-1842 449.25,-1842 455.25,-1842 461.25,-1848 461.25,-1854 461.25,-1854 461.25,-1866 461.25,-1866 461.25,-1872 455.25,-1878 449.25,-1878"/>
<text text-anchor="middle" x="393.25" y="-1854.95" font-family="Times,serif" font-size="14.00">272: get_public_key()</text>
</g>
<!-- node_b2dd151c&#45;&gt;node_2545e901 -->
<g id="edge31" class="edge">
<title>node_b2dd151c&#45;&gt;node_2545e901</title>
<path fill="none" stroke="#f0e442" stroke-width="2" d="M183.8,-1846.5C183.8,-1846.5 311.82,-1846.5 311.82,-1846.5"/>
<polygon fill="#f0e442" stroke="#f0e442" stroke-width="2" points="311.82,-1850 321.82,-1846.5 311.82,-1843 311.82,-1850"/>
</g>
<!-- node_0602df5a -->
<g id="node43" class="node">
<title>node_0602df5a</title>
<path fill="#966f33" stroke="black" d="M422.25,-137C422.25,-137 364.25,-137 364.25,-137 358.25,-137 352.25,-131 352.25,-125 352.25,-125 352.25,-113 352.25,-113 352.25,-107 358.25,-101 364.25,-101 364.25,-101 422.25,-101 422.25,-101 428.25,-101 434.25,-107 434.25,-113 434.25,-113 434.25,-125 434.25,-125 434.25,-131 428.25,-137 422.25,-137"/>
<text text-anchor="middle" x="393.25" y="-113.95" font-family="Times,serif" font-size="14.00">0: (global)()</text>
</g>
<!-- node_0602df5a&#45;&gt;node_a9aeca40 -->
<g id="edge32" class="edge">
<title>node_0602df5a&#45;&gt;node_a9aeca40</title>
<path fill="none" stroke="#56b4e9" stroke-width="2" d="M434.52,-125C473.1,-125 524.81,-125 524.81,-125 524.81,-125 524.81,-172.65 524.81,-172.65"/>
<polygon fill="#56b4e9" stroke="#56b4e9" stroke-width="2" points="521.31,-172.65 524.81,-182.65 528.31,-172.65 521.31,-172.65"/>
</g>
<!-- node_0602df5a&#45;&gt;node_2ac9afc7 -->
<g id="edge33" class="edge">
<title>node_0602df5a&#45;&gt;node_2ac9afc7</title>
<path fill="none" stroke="#56b4e9" stroke-width="2" d="M434.51,-113C434.51,-113 520.47,-113 520.47,-113"/>
<polygon fill="#56b4e9" stroke="#56b4e9" stroke-width="2" points="520.47,-116.5 530.47,-113 520.47,-109.5 520.47,-116.5"/>
</g>
<!-- node_0602df5a&#45;&gt;node_93fe0f9d -->
<g id="edge34" class="edge">
<title>node_0602df5a&#45;&gt;node_93fe0f9d</title>
<path fill="none" stroke="#56b4e9" stroke-width="2" d="M393.25,-100.88C393.25,-76.84 393.25,-37.38 393.25,-37.38 393.25,-37.38 536.34,-37.38 536.34,-37.38"/>
<polygon fill="#56b4e9" stroke="#56b4e9" stroke-width="2" points="536.34,-40.88 546.34,-37.38 536.34,-33.88 536.34,-40.88"/>
</g>
<!-- node_9e2a72de -->
<g id="node45" class="node">
<title>node_9e2a72de</title>
<path fill="#966f33" stroke="black" d="M167.62,-500C167.62,-500 98.38,-500 98.38,-500 92.38,-500 86.38,-494 86.38,-488 86.38,-488 86.38,-476 86.38,-476 86.38,-470 92.38,-464 98.38,-464 98.38,-464 167.62,-464 167.62,-464 173.62,-464 179.62,-470 179.62,-476 179.62,-476 179.62,-488 179.62,-488 179.62,-494 173.62,-500 167.62,-500"/>
<text text-anchor="middle" x="133" y="-476.95" font-family="Times,serif" font-size="14.00">18: get_base()</text>
</g>
<!-- node_9e2a72de&#45;&gt;node_5a8a21be -->
<g id="edge35" class="edge">
<title>node_9e2a72de&#45;&gt;node_5a8a21be</title>
<path fill="none" stroke="#d55e00" stroke-width="2" d="M179.83,-482C254.76,-482 393.25,-482 393.25,-482 393.25,-482 393.25,-631.62 393.25,-631.62"/>
<polygon fill="#d55e00" stroke="#d55e00" stroke-width="2" points="389.75,-631.62 393.25,-641.62 396.75,-631.62 389.75,-631.62"/>
</g>
<!-- node_448c5680 -->
<g id="node46" class="node">
<title>node_448c5680</title>
<path fill="#966f33" stroke="black" d="M172.12,-554C172.12,-554 93.88,-554 93.88,-554 87.88,-554 81.88,-548 81.88,-542 81.88,-542 81.88,-530 81.88,-530 81.88,-524 87.88,-518 93.88,-518 93.88,-518 172.12,-518 172.12,-518 178.12,-518 184.12,-524 184.12,-530 184.12,-530 184.12,-542 184.12,-542 184.12,-548 178.12,-554 172.12,-554"/>
<text text-anchor="middle" x="133" y="-530.95" font-family="Times,serif" font-size="14.00">40: get_health()</text>
</g>
<!-- node_448c5680&#45;&gt;node_5a8a21be -->
<g id="edge36" class="edge">
<title>node_448c5680&#45;&gt;node_5a8a21be</title>
<path fill="none" stroke="#000000" stroke-width="2" d="M184.53,-536C254.38,-536 370.5,-536 370.5,-536 370.5,-536 370.5,-631.51 370.5,-631.51"/>
<polygon fill="#000000" stroke="#000000" stroke-width="2" points="367,-631.51 370.5,-641.51 374,-631.51 367,-631.51"/>
</g>
<!-- node_5c03b42c -->
<g id="node47" class="node">
<title>node_5c03b42c</title>
<path fill="#966f33" stroke="black" d="M167.62,-446C167.62,-446 98.38,-446 98.38,-446 92.38,-446 86.38,-440 86.38,-434 86.38,-434 86.38,-422 86.38,-422 86.38,-416 92.38,-410 98.38,-410 98.38,-410 167.62,-410 167.62,-410 173.62,-410 179.62,-416 179.62,-422 179.62,-422 179.62,-434 179.62,-434 179.62,-440 173.62,-446 167.62,-446"/>
<text text-anchor="middle" x="133" y="-422.95" font-family="Times,serif" font-size="14.00">28: get_ping()</text>
</g>
<!-- node_5c03b42c&#45;&gt;node_5a8a21be -->
<g id="edge37" class="edge">
<title>node_5c03b42c&#45;&gt;node_5a8a21be</title>
<path fill="none" stroke="#f0e442" stroke-width="2" d="M180.05,-428C260.52,-428 416,-428 416,-428 416,-428 416,-631.53 416,-631.53"/>
<polygon fill="#f0e442" stroke="#f0e442" stroke-width="2" points="412.5,-631.53 416,-641.53 419.5,-631.53 412.5,-631.53"/>
</g>
</g>
</svg>
