<?xml version="1.0" encoding="UTF-8" standalone="no"?>
<!DOCTYPE svg PUBLIC "-//W3C//DTD SVG 1.1//EN"
 "http://www.w3.org/Graphics/SVG/1.1/DTD/svg11.dtd">
<!-- Generated by graphviz version 12.2.0 (20241103.1931)
 -->
<!-- Title: classes_simple_model Pages: 1 -->
<svg width="676pt" height="391pt"
 viewBox="0.00 0.00 675.62 391.00" xmlns="http://www.w3.org/2000/svg" xmlns:xlink="http://www.w3.org/1999/xlink">
<g id="graph0" class="graph" transform="scale(1 1) rotate(0) translate(4 387)">
<title>classes_simple_model</title>
<polygon fill="white" stroke="none" points="-4,4 -4,-387 671.62,-387 671.62,4 -4,4"/>
<!-- simple_model.config.ExtraBaseModel.Config -->
<g id="node1" class="node">
<title>simple_model.config.ExtraBaseModel.Config</title>
<polygon fill="none" stroke="black" points="206,-17 206,-90.5 273.75,-90.5 273.75,-17 206,-17"/>
<text text-anchor="start" x="221.12" y="-73.2" font-family="Times,serif" font-size="14.00">Config</text>
<polyline fill="none" stroke="black" points="206,-66 273.75,-66"/>
<text text-anchor="start" x="214" y="-48.7" font-family="Times,serif" font-size="14.00">extra : str</text>
<polyline fill="none" stroke="black" points="206,-41.5 273.75,-41.5"/>
<text text-anchor="start" x="238" y="-24.2" font-family="Times,serif" font-size="14.00"> </text>
</g>
<!-- simple_model.config.ExtraBaseModel -->
<g id="node2" class="node">
<title>simple_model.config.ExtraBaseModel</title>
<polygon fill="none" stroke="black" points="0,-234.75 0,-308.25 163.75,-308.25 163.75,-234.75 0,-234.75"/>
<text text-anchor="start" x="36.12" y="-290.95" font-family="Times,serif" font-size="14.00">ExtraBaseModel</text>
<polyline fill="none" stroke="black" points="0,-283.75 163.75,-283.75"/>
<text text-anchor="start" x="8" y="-266.45" font-family="Times,serif" font-size="14.00">model_config : ConfigDict</text>
<polyline fill="none" stroke="black" points="0,-259.25 163.75,-259.25"/>
<text text-anchor="start" x="80" y="-241.95" font-family="Times,serif" font-size="14.00"> </text>
</g>
<!-- simple_model.config.ModelConfigPM -->
<g id="node3" class="node">
<title>simple_model.config.ModelConfigPM</title>
<polygon fill="none" stroke="black" points="291.75,-0.5 291.75,-107 442,-107 442,-0.5 291.75,-0.5"/>
<text text-anchor="start" x="320" y="-89.7" font-family="Times,serif" font-size="14.00">ModelConfigPM</text>
<polyline fill="none" stroke="black" points="291.75,-82.5 442,-82.5"/>
<text text-anchor="start" x="299.75" y="-65.2" font-family="Times,serif" font-size="14.00">modelName : Annotated</text>
<text text-anchor="start" x="299.75" y="-48.7" font-family="Times,serif" font-size="14.00">models_dir : Annotated</text>
<text text-anchor="start" x="299.75" y="-32.2" font-family="Times,serif" font-size="14.00">threshold : float</text>
<polyline fill="none" stroke="black" points="291.75,-25 442,-25"/>
<text text-anchor="start" x="365" y="-7.7" font-family="Times,serif" font-size="14.00"> </text>
</g>
<!-- simple_model.config.ModelConfigPM&#45;&gt;simple_model.config.ExtraBaseModel -->
<g id="edge1" class="edge">
<title>simple_model.config.ModelConfigPM&#45;&gt;simple_model.config.ExtraBaseModel</title>
<path fill="none" stroke="black" d="M291.57,-102.62C288.65,-104.29 285.74,-105.92 282.88,-107.5 235.41,-133.61 215.55,-126.63 172.88,-160 149.49,-178.28 128.12,-203.56 111.97,-225.32"/>
<polygon fill="none" stroke="black" points="109.31,-223.03 106.27,-233.18 114.98,-227.14 109.31,-223.03"/>
</g>
<!-- simple_model._base.SimpleModel -->
<g id="node4" class="node">
<title>simple_model._base.SimpleModel</title>
<polygon fill="none" stroke="black" points="182.12,-160.5 182.12,-382.5 667.62,-382.5 667.62,-160.5 182.12,-160.5"/>
<text text-anchor="start" x="387.38" y="-365.2" font-family="Times,serif" font-size="14.00">SimpleModel</text>
<polyline fill="none" stroke="black" points="182.12,-358 667.62,-358"/>
<text text-anchor="start" x="407.62" y="-340.7" font-family="Times,serif" font-size="14.00">config</text>
<text text-anchor="start" x="407.62" y="-324.2" font-family="Times,serif" font-size="14.00">model</text>
<polyline fill="none" stroke="black" points="182.12,-317 667.62,-317"/>
<text text-anchor="start" x="190.12" y="-299.7" font-family="Times,serif" font-size="14.00">is_model_files_exist(models_dir: str, model_name: str): bool</text>
<text text-anchor="start" x="190.12" y="-283.2" font-family="Times,serif" font-size="14.00">is_similar(X: NDArray[Any], y: NDArray[Any], threshold: Union[float, None]): bool</text>
<text text-anchor="start" x="190.12" y="-266.7" font-family="Times,serif" font-size="14.00">is_trained(): bool</text>
<text text-anchor="start" x="190.12" y="-250.2" font-family="Times,serif" font-size="14.00">load(): None</text>
<text text-anchor="start" x="190.12" y="-233.7" font-family="Times,serif" font-size="14.00">predict(X: NDArray[Any]): NDArray[Any]</text>
<text text-anchor="start" x="190.12" y="-217.2" font-family="Times,serif" font-size="14.00">run(X: NDArray[Any], y: Union[NDArray[Any], None]): NDArray[Any]</text>
<text text-anchor="start" x="190.12" y="-200.7" font-family="Times,serif" font-size="14.00">save(): None</text>
<text text-anchor="start" x="190.12" y="-184.2" font-family="Times,serif" font-size="14.00">score(y_true: NDArray[Any], y_pred: NDArray[Any]): float</text>
<text text-anchor="start" x="190.12" y="-167.7" font-family="Times,serif" font-size="14.00">train(X: NDArray[Any], y: NDArray[Any]): None</text>
</g>
<!-- simple_model.config.ModelConfigPM&#45;&gt;simple_model._base.SimpleModel -->
<g id="edge2" class="edge">
<title>simple_model.config.ModelConfigPM&#45;&gt;simple_model._base.SimpleModel</title>
<path fill="none" stroke="black" d="M364.42,-107.28C364.81,-118.82 365.94,-130.9 368.38,-142 368.81,-143.99 369.28,-145.99 369.78,-147.99"/>
<polygon fill="black" stroke="black" points="369.75,-147.9 375.2,-152.62 372.94,-159.47 367.49,-154.75 369.75,-147.9"/>
<text text-anchor="middle" x="385.62" y="-128.7" font-family="Times,serif" font-size="14.00" fill="green">config</text>
</g>
<!-- simple_model.config.ModelConfigPM&#45;&gt;simple_model._base.SimpleModel -->
<g id="edge3" class="edge">
<title>simple_model.config.ModelConfigPM&#45;&gt;simple_model._base.SimpleModel</title>
<path fill="none" stroke="black" d="M395.89,-107.28C398.53,-113.31 400.94,-119.46 402.88,-125.5 405.2,-132.73 407.28,-140.25 409.14,-147.88"/>
<polygon fill="black" stroke="black" points="409.12,-147.79 414.35,-152.76 411.78,-159.5 406.55,-154.53 409.12,-147.79"/>
<text text-anchor="middle" x="431.32" y="-128.7" font-family="Times,serif" font-size="14.00" fill="green">__config</text>
</g>
<!-- simple_model._consts.WarnEnum -->
<g id="node5" class="node">
<title>simple_model._consts.WarnEnum</title>
<polygon fill="none" stroke="black" points="460.38,-17 460.38,-90.5 539.38,-90.5 539.38,-17 460.38,-17"/>
<text text-anchor="start" x="468.38" y="-73.2" font-family="Times,serif" font-size="14.00">WarnEnum</text>
<polyline fill="none" stroke="black" points="460.38,-66 539.38,-66"/>
<text text-anchor="start" x="484.88" y="-48.7" font-family="Times,serif" font-size="14.00">name</text>
<polyline fill="none" stroke="black" points="460.38,-41.5 539.38,-41.5"/>
<text text-anchor="start" x="498" y="-24.2" font-family="Times,serif" font-size="14.00"> </text>
</g>
</g>
</svg>
