<?xml version="1.0" encoding="UTF-8" standalone="no"?>
<!DOCTYPE svg PUBLIC "-//W3C//DTD SVG 1.1//EN"
 "http://www.w3.org/Graphics/SVG/1.1/DTD/svg11.dtd">
<!-- Generated by graphviz version 12.2.0 (20241103.1931)
 -->
<!-- Title: packages_simple_model Pages: 1 -->
<svg width="588pt" height="188pt"
 viewBox="0.00 0.00 588.38 188.00" xmlns="http://www.w3.org/2000/svg" xmlns:xlink="http://www.w3.org/1999/xlink">
<g id="graph0" class="graph" transform="scale(1 1) rotate(0) translate(4 184)">
<title>packages_simple_model</title>
<polygon fill="white" stroke="none" points="-4,4 -4,-184 584.38,-184 584.38,4 -4,4"/>
<!-- simple_model -->
<g id="node1" class="node">
<title>simple_model</title>
<polygon fill="none" stroke="black" points="212.25,-36 118.25,-36 118.25,0 212.25,0 212.25,-36"/>
<text text-anchor="middle" x="165.25" y="-12.95" font-family="Times,serif" font-size="14.00">simple_model</text>
</g>
<!-- simple_model.__version__ -->
<g id="node2" class="node">
<title>simple_model.__version__</title>
<polygon fill="none" stroke="black" points="164.5,-180 0,-180 0,-144 164.5,-144 164.5,-180"/>
<text text-anchor="middle" x="82.25" y="-156.95" font-family="Times,serif" font-size="14.00">simple_model.__version__</text>
</g>
<!-- simple_model&#45;&gt;simple_model.__version__ -->
<g id="edge1" class="edge">
<title>simple_model&#45;&gt;simple_model.__version__</title>
<path fill="none" stroke="black" d="M129.94,-36.29C115.88,-45.02 101,-56.98 92.25,-72 81.61,-90.27 79.45,-114.25 79.77,-132.71"/>
<polygon fill="black" stroke="black" points="80.19,-142.44 75.26,-132.65 80.03,-138.67 79.76,-132.45 79.76,-132.45 79.76,-132.45 80.03,-138.67 84.25,-132.26 80.19,-142.44"/>
</g>
<!-- simple_model._base -->
<g id="node3" class="node">
<title>simple_model._base</title>
<polygon fill="none" stroke="black" points="229.5,-108 101,-108 101,-72 229.5,-72 229.5,-108"/>
<text text-anchor="middle" x="165.25" y="-84.95" font-family="Times,serif" font-size="14.00">simple_model._base</text>
</g>
<!-- simple_model&#45;&gt;simple_model._base -->
<g id="edge2" class="edge">
<title>simple_model&#45;&gt;simple_model._base</title>
<path fill="none" stroke="black" d="M165.25,-36.3C165.25,-43.68 165.25,-52.48 165.25,-60.75"/>
<polygon fill="black" stroke="black" points="165.25,-70.68 160.75,-60.68 165.25,-66.9 165.25,-60.68 165.25,-60.68 165.25,-60.68 165.25,-66.9 169.75,-60.68 165.25,-70.68"/>
</g>
<!-- simple_model.config -->
<g id="node6" class="node">
<title>simple_model.config</title>
<polygon fill="none" stroke="black" points="318.38,-180 186.12,-180 186.12,-144 318.38,-144 318.38,-180"/>
<text text-anchor="middle" x="252.25" y="-156.95" font-family="Times,serif" font-size="14.00">simple_model.config</text>
</g>
<!-- simple_model&#45;&gt;simple_model.config -->
<g id="edge3" class="edge">
<title>simple_model&#45;&gt;simple_model.config</title>
<path fill="none" stroke="black" d="M200.24,-36.48C214.24,-45.24 229.17,-57.17 238.25,-72 249.36,-90.14 252.61,-114.12 253.23,-132.62"/>
<polygon fill="black" stroke="black" points="253.3,-142.38 248.73,-132.42 253.27,-138.6 253.23,-132.38 253.23,-132.38 253.23,-132.38 253.27,-138.6 257.73,-132.35 253.3,-142.38"/>
</g>
<!-- simple_model._base&#45;&gt;simple_model.__version__ -->
<g id="edge4" class="edge">
<title>simple_model._base&#45;&gt;simple_model.__version__</title>
<path fill="none" stroke="black" d="M144.73,-108.3C134.66,-116.8 122.34,-127.19 111.32,-136.49"/>
<polygon fill="black" stroke="black" points="103.75,-142.87 108.49,-132.98 106.64,-140.43 111.39,-136.42 111.39,-136.42 111.39,-136.42 106.64,-140.43 114.3,-139.86 103.75,-142.87"/>
</g>
<!-- simple_model._base&#45;&gt;simple_model.config -->
<g id="edge5" class="edge">
<title>simple_model._base&#45;&gt;simple_model.config</title>
<path fill="none" stroke="black" d="M186.76,-108.3C197.42,-116.89 210.48,-127.39 222.13,-136.76"/>
<polygon fill="black" stroke="black" points="229.74,-142.89 219.13,-140.13 226.79,-140.52 221.95,-136.62 221.95,-136.62 221.95,-136.62 226.79,-140.52 224.77,-133.11 229.74,-142.89"/>
</g>
<!-- simple_model._consts -->
<g id="node4" class="node">
<title>simple_model._consts</title>
<polygon fill="none" stroke="black" points="423.38,-108 285.12,-108 285.12,-72 423.38,-72 423.38,-108"/>
<text text-anchor="middle" x="354.25" y="-84.95" font-family="Times,serif" font-size="14.00">simple_model._consts</text>
</g>
<!-- simple_model._utils -->
<g id="node5" class="node">
<title>simple_model._utils</title>
<polygon fill="none" stroke="black" points="418.12,-36 290.38,-36 290.38,0 418.12,0 418.12,-36"/>
<text text-anchor="middle" x="354.25" y="-12.95" font-family="Times,serif" font-size="14.00">simple_model._utils</text>
</g>
<!-- simple_model._utils&#45;&gt;simple_model._consts -->
<g id="edge6" class="edge">
<title>simple_model._utils&#45;&gt;simple_model._consts</title>
<path fill="none" stroke="black" d="M354.25,-36.3C354.25,-43.68 354.25,-52.48 354.25,-60.75"/>
<polygon fill="black" stroke="black" points="354.25,-70.68 349.75,-60.68 354.25,-66.9 354.25,-60.68 354.25,-60.68 354.25,-60.68 354.25,-66.9 358.75,-60.68 354.25,-70.68"/>
</g>
<!-- simple_model.modules -->
<g id="node7" class="node">
<title>simple_model.modules</title>
<polygon fill="none" stroke="black" points="580.38,-36 436.12,-36 436.12,0 580.38,0 580.38,-36"/>
<text text-anchor="middle" x="508.25" y="-12.95" font-family="Times,serif" font-size="14.00">simple_model.modules</text>
</g>
</g>
</svg>
