<?xml version="1.0" encoding="UTF-8" standalone="no"?>
<!DOCTYPE svg PUBLIC "-//W3C//DTD SVG 1.1//EN"
 "http://www.w3.org/Graphics/SVG/1.1/DTD/svg11.dtd">
<!-- Generated by graphviz version 12.2.0 (20241103.1931)
 -->
<!-- Title: packages_api Pages: 1 -->
<svg width="3265pt" height="332pt"
 viewBox="0.00 0.00 3264.50 332.00" xmlns="http://www.w3.org/2000/svg" xmlns:xlink="http://www.w3.org/1999/xlink">
<g id="graph0" class="graph" transform="scale(1 1) rotate(0) translate(4 328)">
<title>packages_api</title>
<polygon fill="white" stroke="none" points="-4,4 -4,-328 3260.5,-328 3260.5,4 -4,4"/>
<!-- src.api -->
<g id="node1" class="node">
<title>src.api</title>
<polygon fill="none" stroke="black" points="206.12,-36 152.12,-36 152.12,0 206.12,0 206.12,-36"/>
<text text-anchor="middle" x="179.12" y="-12.95" font-family="Times,serif" font-size="14.00">src.api</text>
</g>
<!-- src.api.__version__ -->
<g id="node3" class="node">
<title>src.api.__version__</title>
<polygon fill="none" stroke="black" points="172.38,-108 49.88,-108 49.88,-72 172.38,-72 172.38,-108"/>
<text text-anchor="middle" x="111.12" y="-84.95" font-family="Times,serif" font-size="14.00">src.api.__version__</text>
</g>
<!-- src.api&#45;&gt;src.api.__version__ -->
<g id="edge1" class="edge">
<title>src.api&#45;&gt;src.api.__version__</title>
<path fill="none" stroke="black" d="M162.32,-36.3C154.25,-44.61 144.42,-54.72 135.55,-63.86"/>
<polygon fill="black" stroke="black" points="128.59,-71.02 132.33,-60.71 131.22,-68.31 135.56,-63.85 135.56,-63.85 135.56,-63.85 131.22,-68.31 138.79,-66.98 128.59,-71.02"/>
</g>
<!-- src.api.server -->
<g id="node29" class="node">
<title>src.api.server</title>
<polygon fill="none" stroke="black" points="279.5,-108 190.75,-108 190.75,-72 279.5,-72 279.5,-108"/>
<text text-anchor="middle" x="235.12" y="-84.95" font-family="Times,serif" font-size="14.00">src.api.server</text>
</g>
<!-- src.api&#45;&gt;src.api.server -->
<g id="edge2" class="edge">
<title>src.api&#45;&gt;src.api.server</title>
<path fill="none" stroke="black" d="M192.97,-36.3C199.48,-44.44 207.37,-54.31 214.56,-63.3"/>
<polygon fill="black" stroke="black" points="220.68,-70.94 210.92,-65.95 218.32,-67.99 214.43,-63.14 214.43,-63.14 214.43,-63.14 218.32,-67.99 217.95,-60.32 220.68,-70.94"/>
</g>
<!-- src.api.__main__ -->
<g id="node2" class="node">
<title>src.api.__main__</title>
<polygon fill="none" stroke="black" points="346.38,-36 235.88,-36 235.88,0 346.38,0 346.38,-36"/>
<text text-anchor="middle" x="291.12" y="-12.95" font-family="Times,serif" font-size="14.00">src.api.__main__</text>
</g>
<!-- src.api.logger -->
<g id="node23" class="node">
<title>src.api.logger</title>
<polygon fill="none" stroke="black" points="410.25,-252 320,-252 320,-216 410.25,-216 410.25,-252"/>
<text text-anchor="middle" x="365.12" y="-228.95" font-family="Times,serif" font-size="14.00">src.api.logger</text>
</g>
<!-- src.api.__main__&#45;&gt;src.api.logger -->
<g id="edge3" class="edge">
<title>src.api.__main__&#45;&gt;src.api.logger</title>
<path fill="none" stroke="black" d="M311.27,-36.45C335.18,-58.63 373.74,-99.43 389.12,-144 396.16,-164.39 389.14,-187.98 380.91,-205.75"/>
<polygon fill="black" stroke="black" points="376.43,-214.64 376.91,-203.68 378.13,-211.26 380.93,-205.71 380.93,-205.71 380.93,-205.71 378.13,-211.26 384.95,-207.73 376.43,-214.64"/>
</g>
<!-- src.api.__main__&#45;&gt;src.api.server -->
<g id="edge4" class="edge">
<title>src.api.__main__&#45;&gt;src.api.server</title>
<path fill="none" stroke="black" d="M277.28,-36.3C270.77,-44.44 262.88,-54.31 255.69,-63.3"/>
<polygon fill="black" stroke="black" points="249.57,-70.94 252.3,-60.32 251.93,-67.99 255.82,-63.14 255.82,-63.14 255.82,-63.14 251.93,-67.99 259.33,-65.95 249.57,-70.94"/>
</g>
<!-- src.api.config -->
<g id="node4" class="node">
<title>src.api.config</title>
<polygon fill="none" stroke="black" points="299.25,-324 209,-324 209,-288 299.25,-288 299.25,-324"/>
<text text-anchor="middle" x="254.12" y="-300.95" font-family="Times,serif" font-size="14.00">src.api.config</text>
</g>
<!-- src.api.databases -->
<g id="node5" class="node">
<title>src.api.databases</title>
<polygon fill="none" stroke="black" points="471.88,-36 364.38,-36 364.38,0 471.88,0 471.88,-36"/>
<text text-anchor="middle" x="418.12" y="-12.95" font-family="Times,serif" font-size="14.00">src.api.databases</text>
</g>
<!-- src.api.exception -->
<g id="node6" class="node">
<title>src.api.exception</title>
<polygon fill="none" stroke="black" points="150.25,-180 42,-180 42,-144 150.25,-144 150.25,-180"/>
<text text-anchor="middle" x="96.12" y="-156.95" font-family="Times,serif" font-size="14.00">src.api.exception</text>
</g>
<!-- src.api.externals -->
<g id="node7" class="node">
<title>src.api.externals</title>
<polygon fill="none" stroke="black" points="594.38,-36 489.88,-36 489.88,0 594.38,0 594.38,-36"/>
<text text-anchor="middle" x="542.12" y="-12.95" font-family="Times,serif" font-size="14.00">src.api.externals</text>
</g>
<!-- src.api.externals.celery -->
<g id="node8" class="node">
<title>src.api.externals.celery</title>
<polygon fill="none" stroke="black" points="753.75,-36 612.5,-36 612.5,0 753.75,0 753.75,-36"/>
<text text-anchor="middle" x="683.12" y="-12.95" font-family="Times,serif" font-size="14.00">src.api.externals.celery</text>
</g>
<!-- src.api.externals.elastic -->
<g id="node9" class="node">
<title>src.api.externals.elastic</title>
<polygon fill="none" stroke="black" points="914.5,-36 771.75,-36 771.75,0 914.5,0 914.5,-36"/>
<text text-anchor="middle" x="843.12" y="-12.95" font-family="Times,serif" font-size="14.00">src.api.externals.elastic</text>
</g>
<!-- src.api.externals.kafka -->
<g id="node10" class="node">
<title>src.api.externals.kafka</title>
<polygon fill="none" stroke="black" points="1071.25,-36 933,-36 933,0 1071.25,0 1071.25,-36"/>
<text text-anchor="middle" x="1002.12" y="-12.95" font-family="Times,serif" font-size="14.00">src.api.externals.kafka</text>
</g>
<!-- src.api.externals.mail -->
<g id="node11" class="node">
<title>src.api.externals.mail</title>
<polygon fill="none" stroke="black" points="1222.62,-36 1089.62,-36 1089.62,0 1222.62,0 1222.62,-36"/>
<text text-anchor="middle" x="1156.12" y="-12.95" font-family="Times,serif" font-size="14.00">src.api.externals.mail</text>
</g>
<!-- src.api.externals.openai -->
<g id="node12" class="node">
<title>src.api.externals.openai</title>
<polygon fill="none" stroke="black" points="1385.25,-36 1241,-36 1241,0 1385.25,0 1385.25,-36"/>
<text text-anchor="middle" x="1313.12" y="-12.95" font-family="Times,serif" font-size="14.00">src.api.externals.openai</text>
</g>
<!-- src.api.externals.redis -->
<g id="node13" class="node">
<title>src.api.externals.redis</title>
<polygon fill="none" stroke="black" points="1537.38,-36 1402.88,-36 1402.88,0 1537.38,0 1537.38,-36"/>
<text text-anchor="middle" x="1470.12" y="-12.95" font-family="Times,serif" font-size="14.00">src.api.externals.redis</text>
</g>
<!-- src.api.externals.s3 -->
<g id="node14" class="node">
<title>src.api.externals.s3</title>
<polygon fill="none" stroke="black" points="1675.25,-36 1555,-36 1555,0 1675.25,0 1675.25,-36"/>
<text text-anchor="middle" x="1615.12" y="-12.95" font-family="Times,serif" font-size="14.00">src.api.externals.s3</text>
</g>
<!-- src.api.externals.webhook -->
<g id="node15" class="node">
<title>src.api.externals.webhook</title>
<polygon fill="none" stroke="black" points="1851,-36 1693.25,-36 1693.25,0 1851,0 1851,-36"/>
<text text-anchor="middle" x="1772.12" y="-12.95" font-family="Times,serif" font-size="14.00">src.api.externals.webhook</text>
</g>
<!-- src.api.helpers -->
<g id="node16" class="node">
<title>src.api.helpers</title>
<polygon fill="none" stroke="black" points="1963.5,-36 1868.75,-36 1868.75,0 1963.5,0 1963.5,-36"/>
<text text-anchor="middle" x="1916.12" y="-12.95" font-family="Times,serif" font-size="14.00">src.api.helpers</text>
</g>
<!-- src.api.helpers.crypto -->
<g id="node17" class="node">
<title>src.api.helpers.crypto</title>
<polygon fill="none" stroke="black" points="2114.62,-36 1981.62,-36 1981.62,0 2114.62,0 2114.62,-36"/>
<text text-anchor="middle" x="2048.12" y="-12.95" font-family="Times,serif" font-size="14.00">src.api.helpers.crypto</text>
</g>
<!-- src.api.helpers.crypto.jwt -->
<g id="node18" class="node">
<title>src.api.helpers.crypto.jwt</title>
<polygon fill="none" stroke="black" points="2287.12,-36 2133.12,-36 2133.12,0 2287.12,0 2287.12,-36"/>
<text text-anchor="middle" x="2210.12" y="-12.95" font-family="Times,serif" font-size="14.00">src.api.helpers.crypto.jwt</text>
</g>
<!-- src.api.helpers.crypto.rsa -->
<g id="node19" class="node">
<title>src.api.helpers.crypto.rsa</title>
<polygon fill="none" stroke="black" points="2457.38,-36 2304.88,-36 2304.88,0 2457.38,0 2457.38,-36"/>
<text text-anchor="middle" x="2381.12" y="-12.95" font-family="Times,serif" font-size="14.00">src.api.helpers.crypto.rsa</text>
</g>
<!-- src.api.helpers.notification -->
<g id="node20" class="node">
<title>src.api.helpers.notification</title>
<polygon fill="none" stroke="black" points="2636.5,-36 2475.75,-36 2475.75,0 2636.5,0 2636.5,-36"/>
<text text-anchor="middle" x="2556.12" y="-12.95" font-family="Times,serif" font-size="14.00">src.api.helpers.notification</text>
</g>
<!-- src.api.helpers.websocket -->
<g id="node21" class="node">
<title>src.api.helpers.websocket</title>
<polygon fill="none" stroke="black" points="2809.88,-36 2654.38,-36 2654.38,0 2809.88,0 2809.88,-36"/>
<text text-anchor="middle" x="2732.12" y="-12.95" font-family="Times,serif" font-size="14.00">src.api.helpers.websocket</text>
</g>
<!-- src.api.lifespan -->
<g id="node22" class="node">
<title>src.api.lifespan</title>
<polygon fill="none" stroke="black" points="380.38,-180 281.88,-180 281.88,-144 380.38,-144 380.38,-180"/>
<text text-anchor="middle" x="331.12" y="-156.95" font-family="Times,serif" font-size="14.00">src.api.lifespan</text>
</g>
<!-- src.api.lifespan&#45;&gt;src.api.config -->
<g id="edge5" class="edge">
<title>src.api.lifespan&#45;&gt;src.api.config</title>
<path fill="none" stroke="black" d="M321.68,-180.41C308.45,-204.82 284.27,-249.42 268.71,-278.11"/>
<polygon fill="black" stroke="black" points="263.98,-286.82 264.8,-275.88 265.79,-283.49 268.75,-278.03 268.75,-278.03 268.75,-278.03 265.79,-283.49 272.71,-280.17 263.98,-286.82"/>
</g>
<!-- src.api.lifespan&#45;&gt;src.api.logger -->
<g id="edge6" class="edge">
<title>src.api.lifespan&#45;&gt;src.api.logger</title>
<path fill="none" stroke="black" d="M339.53,-180.3C343.28,-188.02 347.78,-197.29 351.96,-205.89"/>
<polygon fill="black" stroke="black" points="356.28,-214.8 347.87,-207.77 354.63,-211.4 351.92,-205.8 351.92,-205.8 351.92,-205.8 354.63,-211.4 355.96,-203.84 356.28,-214.8"/>
</g>
<!-- src.api.logger&#45;&gt;src.api.config -->
<g id="edge7" class="edge">
<title>src.api.logger&#45;&gt;src.api.config</title>
<path fill="none" stroke="black" d="M337.4,-252.48C323.26,-261.4 305.87,-272.37 290.65,-281.97"/>
<polygon fill="black" stroke="black" points="282.53,-287.09 288.58,-277.95 285.72,-285.07 290.98,-281.76 290.98,-281.76 290.98,-281.76 285.72,-285.07 293.38,-285.56 282.53,-287.09"/>
</g>
<!-- src.api.middleware -->
<g id="node24" class="node">
<title>src.api.middleware</title>
<polygon fill="none" stroke="black" points="120.25,-252 0,-252 0,-216 120.25,-216 120.25,-252"/>
<text text-anchor="middle" x="60.12" y="-228.95" font-family="Times,serif" font-size="14.00">src.api.middleware</text>
</g>
<!-- src.api.middleware&#45;&gt;src.api.config -->
<g id="edge8" class="edge">
<title>src.api.middleware&#45;&gt;src.api.config</title>
<path fill="none" stroke="black" d="M108.58,-252.48C135.75,-262.29 169.76,-274.56 198.07,-284.77"/>
<polygon fill="black" stroke="black" points="207.47,-288.17 196.54,-289.01 203.92,-286.88 198.07,-284.77 198.07,-284.77 198.07,-284.77 203.92,-286.88 199.59,-280.54 207.47,-288.17"/>
</g>
<!-- src.api.modules -->
<g id="node25" class="node">
<title>src.api.modules</title>
<polygon fill="none" stroke="black" points="2930.25,-36 2828,-36 2828,0 2930.25,0 2930.25,-36"/>
<text text-anchor="middle" x="2879.12" y="-12.95" font-family="Times,serif" font-size="14.00">src.api.modules</text>
</g>
<!-- src.api.modules.simple_model -->
<g id="node26" class="node">
<title>src.api.modules.simple_model</title>
<polygon fill="none" stroke="black" points="3132.12,-36 2948.12,-36 2948.12,0 3132.12,0 3132.12,-36"/>
<text text-anchor="middle" x="3040.12" y="-12.95" font-family="Times,serif" font-size="14.00">src.api.modules.simple_model</text>
</g>
<!-- src.api.resources -->
<g id="node27" class="node">
<title>src.api.resources</title>
<polygon fill="none" stroke="black" points="3256.5,-36 3149.75,-36 3149.75,0 3256.5,0 3256.5,-36"/>
<text text-anchor="middle" x="3203.12" y="-12.95" font-family="Times,serif" font-size="14.00">src.api.resources</text>
</g>
<!-- src.api.router -->
<g id="node28" class="node">
<title>src.api.router</title>
<polygon fill="none" stroke="black" points="226.12,-252 138.12,-252 138.12,-216 226.12,-216 226.12,-252"/>
<text text-anchor="middle" x="182.12" y="-228.95" font-family="Times,serif" font-size="14.00">src.api.router</text>
</g>
<!-- src.api.router&#45;&gt;src.api.config -->
<g id="edge9" class="edge">
<title>src.api.router&#45;&gt;src.api.config</title>
<path fill="none" stroke="black" d="M199.92,-252.3C208.49,-260.63 218.92,-270.78 228.34,-279.93"/>
<polygon fill="black" stroke="black" points="235.41,-286.8 225.1,-283.06 232.7,-284.17 228.24,-279.83 228.24,-279.83 228.24,-279.83 232.7,-284.17 231.38,-276.61 235.41,-286.8"/>
</g>
<!-- src.api.server&#45;&gt;src.api.config -->
<g id="edge10" class="edge">
<title>src.api.server&#45;&gt;src.api.config</title>
<path fill="none" stroke="black" d="M236.65,-108.15C239.91,-144.93 247.62,-231.71 251.62,-276.76"/>
<polygon fill="black" stroke="black" points="252.49,-286.55 247.12,-276.99 252.15,-282.79 251.6,-276.59 251.6,-276.59 251.6,-276.59 252.15,-282.79 256.09,-276.2 252.49,-286.55"/>
</g>
<!-- src.api.server&#45;&gt;src.api.exception -->
<g id="edge11" class="edge">
<title>src.api.server&#45;&gt;src.api.exception</title>
<path fill="none" stroke="black" d="M200.41,-108.48C182.19,-117.66 159.68,-128.99 140.25,-138.78"/>
<polygon fill="black" stroke="black" points="131.49,-143.19 138.4,-134.67 134.87,-141.49 140.42,-138.69 140.42,-138.69 140.42,-138.69 134.87,-141.49 142.44,-142.71 131.49,-143.19"/>
</g>
<!-- src.api.server&#45;&gt;src.api.lifespan -->
<g id="edge12" class="edge">
<title>src.api.server&#45;&gt;src.api.lifespan</title>
<path fill="none" stroke="black" d="M258.86,-108.3C270.86,-117.05 285.6,-127.81 298.64,-137.31"/>
<polygon fill="black" stroke="black" points="306.35,-142.94 295.62,-140.68 303.29,-140.71 298.27,-137.04 298.27,-137.04 298.27,-137.04 303.29,-140.71 300.92,-133.41 306.35,-142.94"/>
</g>
<!-- src.api.server&#45;&gt;src.api.middleware -->
<g id="edge13" class="edge">
<title>src.api.server&#45;&gt;src.api.middleware</title>
<path fill="none" stroke="black" d="M223.29,-108.42C209.55,-127.71 185.4,-158.85 159.12,-180 144.54,-191.74 126.96,-202.14 110.68,-210.54"/>
<polygon fill="black" stroke="black" points="101.85,-214.96 108.78,-206.46 105.23,-213.27 110.79,-210.49 110.79,-210.49 110.79,-210.49 105.23,-213.27 112.81,-214.51 101.85,-214.96"/>
</g>
<!-- src.api.server&#45;&gt;src.api.router -->
<g id="edge14" class="edge">
<title>src.api.server&#45;&gt;src.api.router</title>
<path fill="none" stroke="black" d="M228.63,-108.41C219.56,-132.71 203.02,-177.03 192.3,-205.73"/>
<polygon fill="black" stroke="black" points="188.94,-214.75 188.22,-203.81 190.26,-211.2 192.43,-205.38 192.43,-205.38 192.43,-205.38 190.26,-211.2 196.65,-206.95 188.94,-214.75"/>
</g>
</g>
</svg>
